<?xml version="1.0" encoding="UTF-8" standalone="no"?>
<!-- Generator: Adobe Illustrator 12.0.1, SVG Export Plug-In . SVG Version: 6.00 Build 51448)  -->

<svg
   xmlns:dc="http://purl.org/dc/elements/1.1/"
   xmlns:cc="http://creativecommons.org/ns#"
   xmlns:rdf="http://www.w3.org/1999/02/22-rdf-syntax-ns#"
   xmlns:svg="http://www.w3.org/2000/svg"
   xmlns="http://www.w3.org/2000/svg"
   xmlns:sodipodi="http://sodipodi.sourceforge.net/DTD/sodipodi-0.dtd"
   xmlns:inkscape="http://www.inkscape.org/namespaces/inkscape"
   version="1.1"
   id="Layer_1"
   width="513.809"
   height="700.021"
   viewBox="0 0 513.809 700.021"
   overflow="visible"
   enable-background="new 0 0 513.809 700.021"
   xml:space="preserve"
   inkscape:version="0.48.1 "
   sodipodi:docname="Lateral_chest_landmarks.svg"><metadata
   id="metadata4243"><rdf:RDF><cc:Work
       rdf:about=""><dc:format>image/svg+xml</dc:format><dc:type
         rdf:resource="http://purl.org/dc/dcmitype/StillImage" /></cc:Work></rdf:RDF></metadata><defs
   id="defs4241" /><sodipodi:namedview
   pagecolor="#ffffff"
   bordercolor="#666666"
   borderopacity="1"
   objecttolerance="10"
   gridtolerance="10"
   guidetolerance="10"
   inkscape:pageopacity="0"
   inkscape:pageshadow="2"
   inkscape:window-width="640"
   inkscape:window-height="480"
   id="namedview4239"
   showgrid="false"
   inkscape:zoom="0.41570182"
   inkscape:cx="256.90451"
   inkscape:cy="-25.25849"
   inkscape:window-x="0"
   inkscape:window-y="0"
   inkscape:window-maximized="0"
   inkscape:current-layer="Layer_1" />
<g
   id="g4019">
	<path
   fill="#CCCCCC"
   d="M206.772,0.277c0,0,3.399,8.392,4.301,11.305c0.902,2.913,1.595,5.202,2.705,9.918   c1.11,4.716,2.635,8.323,3.259,14.565c0.624,6.242,1.457,9.502,0.555,14.288c-0.901,4.786-2.011,8.392-4.577,11.028   c-2.566,2.636-7.907,7.907-11.097,11.167c-3.191,3.26-5.34,6.173-7.906,11.236c-2.567,5.063-3.468,8.808-5.549,13.039   c-2.081,4.231-3.607,5.618-7.63,10.612c-4.022,4.994-16.715,17.963-20.113,22.472c-3.398,4.509-10.404,13.733-13.594,18.102   c-3.19,4.37-9.709,14.08-12.484,19.143s-9.641,17.062-12.762,22.472s-9.71,16.715-12.554,21.016   c-2.844,4.3-8.462,12.762-12.346,18.934c-3.884,6.173-10.889,15.675-14.496,20.946c-3.606,5.271-9.987,15.051-13.178,19.351   c-3.19,4.3-8.393,11.999-11.444,16.507c-3.051,4.508-7.282,12.068-11.651,18.726c-4.37,6.659-12.207,19.836-16.369,27.327   c-4.162,7.49-6.312,12.554-8.323,17.131c-2.011,4.578-5.479,9.085-7.352,13.041c-1.873,3.953-4.855,12.274-7.421,17.963   c-2.566,5.687-5.964,10.681-5.826,13.803c0.139,3.12,1.665,5.548,1.873,5.895c0.208,0.348,0,4.786,0.486,6.382   c0.485,1.595,3.676,6.381,4.369,7.352c0.694,0.972,2.358,7.145,3.398,9.919c1.041,2.774,8.184,16.715,10.473,20.044   s13.941,15.812,18.102,19.073c4.162,3.26,10.958,7.144,11.444,7.63c0.485,0.484,0.971,1.872,0.693,3.536   c-0.277,1.665,0,11.791,0.694,16.715c0.693,4.925,3.259,14.635,4.993,19.768c1.734,5.134,3.538,12.207,3.121,19.003   c-0.416,6.799-2.566,20.67-3.19,24.555c-0.624,3.884-2.219,17.478-2.635,21.709c-0.417,4.229-1.11,18.379-1.041,23.303   c0.069,4.925,0.139,16.924,0.417,22.333c0.277,5.41,1.387,13.456,2.15,18.729c0.763,5.271,2.081,12.761,2.705,17.686   c0.625,4.925,1.665,13.594,1.734,18.38c0.069,4.785,0.485,22.194,0.485,22.61s-0.069,0.763-0.069,0.763h364.541   c0,0,0.694-3.814,1.665-7.56c0.972-3.746,4.785-16.508,6.242-20.669s6.104-18.38,8.67-25.454c2.565-7.074,4.924-12.9,7.074-18.796   c2.149-5.896,7.213-22.056,8.737-26.147c1.526-4.092,6.729-21.778,7.838-26.009c1.11-4.231,4.718-18.103,5.896-22.541   s4.786-19.697,5.965-23.928c1.179-4.231,4.438-20.185,5.202-23.79c0.763-3.606,3.605-19.489,4.508-23.305   c0.901-3.814,4.577-20.113,5.41-23.998c0.832-3.884,3.121-18.172,3.745-22.401c0.624-4.23,2.288-17.756,2.912-24.137   c0.625-6.382,1.665-23.513,2.013-28.575c0.347-5.062,2.843-23.858,3.884-27.812c1.04-3.952,3.814-16.924,4.716-21.154   c0.902-4.23,2.497-16.715,2.637-21.708c0.139-4.993,0.139-19.143-0.208-23.859c-0.348-4.716-3.261-22.679-4.369-26.703   c-1.11-4.022-5.757-18.518-7.283-23.026c-1.525-4.508-5.549-14.773-7.213-19.489c-1.665-4.716-8.045-20.599-9.294-24.691   c-1.248-4.092-8.254-23.443-9.434-28.159c-1.179-4.716-3.676-17.894-4.646-22.194c-0.972-4.3-5.341-18.103-6.729-21.64   c-1.387-3.537-6.449-13.733-9.085-17.825c-2.636-4.092-11.235-15.051-14.08-19.143c-2.844-4.092-10.126-14.496-12.622-20.044   c-2.496-5.549-4.093-13.872-4.855-17.2c-0.762-3.329-2.843-12.068-3.883-14.843c-1.041-2.774-6.589-11.305-8.948-15.259   c-2.356-3.953-4.368-10.542-4.854-12.761c-0.485-2.22-0.832-4.647-0.832-4.647h-197.67V0.277z"
   id="path4021" />
	<path
   fill="#99B5CE"
   d="M146.778,223.885c9.988-21.917,24.136-45.776,33.292-59.647c9.155-13.871,29.685-45.221,38.563-56.873   c8.877-11.651,17.201-23.026,27.743-32.459c10.542-9.432,29.407-21.362,40.504-19.975c11.099,1.387,21.362,3.606,36.897,18.865   c15.536,15.259,31.071,31.35,39.117,44.111c8.047,12.762,36.344,66.028,40.228,76.293c3.885,10.265,16.924,51.602,21.085,69.357   c4.161,17.755,8.878,36.065,10.82,48.272c1.94,12.207,5.548,40.505,6.657,58.537c1.109,18.033,0.832,62.978-0.276,76.016   c-1.11,13.04-3.885,39.95-8.878,54.101c-4.994,14.147-4.994,10.818-8.878,19.695c-3.885,8.878-4.161,24.138-9.987,39.396   s-5.826,18.588-14.704,31.903c-8.878,13.316-15.812,29.131-31.627,40.229c-15.812,11.097-28.298,23.304-56.595,13.871   c-28.298-9.434-67.138-33.568-95.158-52.989c-28.021-19.419-61.035-35.232-77.68-66.583   c-16.646-31.349-25.246-50.491-28.298-84.061c-3.052-33.568-2.497-38.285,0-69.08c2.497-30.794,6.381-60.479,12.207-82.95   C127.636,267.441,136.791,245.801,146.778,223.885z"
   id="path4023" />
	<g
   id="g4025">
		<path
   fill="#EDBAA8"
   stroke="#B18C7F"
   stroke-width="0.5549"
   d="M196.993,141.211c14.772-20.681,39.395-56.041,49.937-64.918    c10.542-8.877,29.408-24.414,49.938-18.31s53.821,45.498,61.59,56.041c7.768,10.542,41.613,72.131,51.046,103.758    s24.969,87.112,28.854,134.275c3.884,47.162,3.884,63.809,1.108,93.216c-2.774,29.406-3.884,59.369-21.64,73.796    s-36.065,22.193-75.461,12.207c-39.396-9.987-97.099-26.634-127.617-36.62c-30.517-9.987-72.131-17.756-87.667-48.273    c-15.536-30.517-18.865-42.169-12.207-99.318c6.659-57.15,14.426-80.455,23.859-100.985c9.433-20.529,21.64-49.382,36.066-70.467    C189.225,154.527,188.67,152.863,196.993,141.211z"
   id="path4027" />
	</g>
	<path
   d="M405.48,0.277c0,0,1.039,7.144,3.189,11.999s7.561,13.664,9.502,16.923c1.942,3.259,3.954,10.958,4.717,14.149   c0.764,3.191,2.705,13.455,4.23,16.299c1.526,2.843,4.716,8.045,5.549,9.571c0.832,1.526,5.062,9.71,8.393,14.219   c3.328,4.508,12.276,16.576,15.396,21.57c3.121,4.993,5.479,10.195,7.074,14.148c1.596,3.954,2.22,7.075,2.844,8.601   c0.625,1.526,3.19,7.49,4.578,12.9c1.387,5.41,3.676,16.715,4.716,20.807c1.04,4.092,3.468,11.236,4.509,15.189   c1.04,3.953,2.288,6.936,3.189,9.363c0.902,2.428,2.705,8.323,3.885,12.137c1.18,3.815,1.664,5.271,2.773,8.323   c1.109,3.052,4.438,11.513,5.896,15.883c1.457,4.37,2.567,6.381,3.746,9.71c1.179,3.329,5.271,15.605,6.589,19.489   c1.317,3.884,4.369,14.704,4.993,19.975c0.625,5.271,2.081,12.415,2.358,17.547c0.276,5.132,0.276,18.657-0.069,24.136   c0,0-0.139,8.185-0.693,11.514s-2.289,12.554-3.261,16.576c-0.97,4.022-2.912,12.899-3.812,17.616   c-0.901,4.717-2.497,14.773-2.913,19.628s-1.249,13.455-1.389,18.796c-0.139,5.341-1.387,13.663-1.732,17.964   c-0.347,4.301-1.388,12.484-1.873,16.646s-1.872,12.207-2.636,17.34c-0.764,5.132-3.12,13.802-3.885,17.547   c-0.763,3.745-2.705,11.027-3.397,14.911c-0.693,3.885-2.565,12.763-3.19,16.438c-0.624,3.676-2.773,13.731-3.468,17.755   c-0.693,4.022-1.733,8.809-2.844,13.524c-1.109,4.716-3.606,12.483-4.438,15.883c-0.832,3.398-2.289,9.711-3.26,14.011   s-3.814,14.287-4.925,18.727c-1.109,4.438-4.092,14.703-5.063,17.824c-0.97,3.121-3.467,9.988-5.479,16.092   c-2.011,6.104-4.785,14.912-6.172,18.379c-1.389,3.468-6.034,15.952-7.769,20.53c-1.733,4.577-3.606,10.542-5.618,16.923   s-5.341,15.813-6.241,19.56c-0.901,3.745-3.018,12.346-3.018,12.346h-1.665c0,0,0.866-6.104,3.086-13.386   c2.221-7.282,5.41-17.688,7.907-24.622c2.496-6.937,5.896-16.646,7.906-22.057c0,0,5.062-13.871,6.867-19.212   c1.803-5.341,6.24-18.172,8.6-25.662c2.359-7.489,5.618-19.004,7.074-24.344c1.457-5.341,3.885-14.288,5.202-19.49   c1.316-5.2,3.397-13.107,4.924-19.072s4.578-20.113,5.549-25.522c0.972-5.411,1.733-8.531,2.15-10.612   c0.416-2.081,3.26-16.091,5.062-24.136c1.804-8.046,3.815-16.021,4.855-23.305s2.081-13.524,2.981-20.945   c0.901-7.421,2.081-17.825,2.565-24.761c0.485-6.938,1.109-14.496,1.249-22.125c0.139-7.631,1.041-14.01,2.22-21.293   c1.179-7.282,3.329-15.051,4.854-20.945c1.525-5.896,3.746-16.785,4.022-22.888c0.277-6.103,0.069-11.791-0.208-18.935   c-0.278-7.144-0.347-13.732-1.388-20.391c-1.04-6.659-3.329-16.299-5.132-22.125c-1.805-5.826-4.51-13.871-6.521-19.42   c-2.011-5.548-5.548-15.605-7.698-21.084c-2.149-5.479-5.271-12.692-7.629-19.351c-2.357-6.659-6.728-19.906-8.254-24.414   c-1.524-4.508-3.605-16.091-4.577-20.391c-0.971-4.3-2.912-11.652-4.438-16.507c-1.525-4.855-3.398-11.93-5.409-16.091   c-2.012-4.161-6.798-12.553-10.474-17.2c-3.677-4.647-9.434-11.86-13.179-16.993c-3.744-5.133-7.005-9.363-9.57-13.94   c-2.566-4.578-3.121-7.907-3.469-9.294c-0.347-1.387-0.416-2.983-1.663-10.196c-1.249-7.213-2.289-11.929-4.162-16.368   s-4.022-7.699-6.729-11.375c-2.705-3.676-4.993-5.479-6.104-9.848c-1.109-4.37-2.081-11.167-2.081-11.167H405.48L405.48,0.277z"
   id="path4029" />
	<path
   d="M206.217,0.277c0,0,4.509,11.235,5.479,15.397c0.971,4.162,2.636,9.294,3.468,13.872c0.832,4.577,1.665,9.016,1.803,13.316   c0.138,4.3,0.278,5.271-0.416,8.462c-0.693,3.19-1.942,6.104-3.468,8.045c-1.526,1.941-5.132,6.658-7.352,8.323   s-5.133,5.41-6.797,7.074s-4.439,5.549-5.549,7.907c-1.11,2.358-3.606,7.629-4.854,10.542c-1.249,2.913-4.162,7.907-6.659,11.236   c-2.497,3.329-16.646,19.42-19.697,22.61c-3.051,3.19-9.016,10.82-11.929,14.704c-2.913,3.884-9.849,14.565-12.346,18.449   c-2.497,3.884-5.271,8.878-7.907,12.9c-2.636,4.021-10.681,19.42-13.316,23.859c-2.636,4.439-6.659,10.958-9.71,15.813   c-3.052,4.855-13.316,20.53-16.229,24.275c-2.913,3.745-6.797,9.571-9.155,12.9s-5.133,8.462-7.768,12.068   c-2.636,3.606-13.178,18.587-19.143,28.02c-5.965,9.433-9.571,14.981-12.9,20.53c-3.33,5.549-12.346,20.53-15.814,26.91   c-3.468,6.381-5.964,13.595-6.796,15.536c-0.833,1.942-0.971,1.526-2.497,4.162c-1.526,2.637-6.242,10.682-7.629,14.148   c-1.387,3.467-2.219,6.936-3.052,8.878c-0.832,1.942-2.358,4.161-3.329,5.826c-0.971,1.664-2.081,4.577-2.358,6.104   c-0.278,1.524-0.555,4.438,0.139,6.104c0.693,1.664,2.774,4.021,4.3,4.021c1.526,0,3.746-1.941,4.578-3.329   c0.833-1.388,1.804-6.937,1.526-7.769c-0.277-0.832-0.971,3.191-1.526,4.439s-1.942,3.884-3.329,4.021   c-1.387,0.138-2.636,0.416-3.19-1.387c-0.555-1.805-0.832-3.605-0.277-6.521c0.555-2.912,3.052-7.213,4.162-9.154   c1.109-1.941,1.942-5.271,2.635-7.49c0.694-2.221,4.023-9.154,4.994-10.958c0.971-1.804,3.884-6.658,3.884-6.658l-0.832,7.213   c0,0,0.971-1.387,1.387-2.913c0.417-1.525,2.081-9.57,4.716-15.12c2.635-5.549,10.126-19.281,13.733-24.83   c3.606-5.549,10.958-18.865,13.594-22.75c2.636-3.884,7.491-12.623,9.71-15.535c2.219-2.914,11.097-15.675,14.981-21.224   c3.884-5.548,14.704-21.084,18.726-26.771c4.023-5.687,10.126-15.397,14.01-21.084c3.884-5.688,13.872-22.888,16.923-28.575   c3.051-5.688,10.542-18.588,12.484-21.5c1.942-2.913,11.929-19.143,17.478-25.662c5.548-6.52,16.229-19.559,20.807-23.859   c4.578-4.3,10.265-10.265,12.207-14.01c1.942-3.746,4.716-14.01,7.075-17.339c2.358-3.329,4.577-8.323,7.629-10.681   c3.052-2.358,8.045-7.074,10.959-10.82c2.913-3.745,4.855-8.877,4.855-14.565s-0.972-13.317-2.22-18.171   c-1.249-4.855-3.606-14.704-4.854-18.172c-1.249-3.468-4.162-10.819-4.162-10.819L206.217,0.277L206.217,0.277z"
   id="path4031" />
	<path
   d="M5.931,390.61c0.136,1.248-0.812,2.17-0.641,3.338c-1.262-1.545-0.454-3.348-0.439-4.992   c0.007-0.788,0.945-0.516,1.548-0.557C5.437,388.946,5.852,389.888,5.931,390.61z"
   id="path4033" />
	<path
   d="M19.08,396.696c2.067-6.543,1.172-13.271,0.637-19.948c1.34,6.8,2.245,13.858,0.102,20.381   c-0.573,1.742-0.23,5.251-2.876,5.144C18.052,400.569,18.475,398.611,19.08,396.696z"
   id="path4035" />
	<path
   d="M2.238,400.469c0,0,0.069,3.328,0.347,4.924s1.179,4.717,1.942,5.826c0.763,1.109,2.15,2.288,2.428,3.26   c0.277,0.972,1.11,4.646,1.665,6.312c0.555,1.665,4.647,11.028,6.45,14.357c1.803,3.328,7.213,11.999,10.542,15.675   c3.329,3.677,9.911,10.851,14.703,14.426c4.37,3.261,15.397,9.364,19.49,10.82c4.093,1.456,15.12,4.092,21.154,4.438   s16.091-0.832,21.154-1.664s17.895-4.646,19.698-5.826c1.803-1.179-8.254,2.705-11.999,3.261   c-3.745,0.555-14.981,1.803-20.321,1.941c-5.341,0.139-15.744-0.625-22.68-2.566c-6.871-1.925-17.963-7.489-23.65-11.651   c-5.688-4.161-13.178-10.889-17.547-16.576c-4.37-5.688-9.225-12.899-12.138-20.322c-2.913-7.421-3.884-10.472-3.745-11.65   s0.693-1.595,1.733-2.22c1.041-0.624,2.913-2.637,3.33-3.814c0.416-1.18,0.832-3.398,0.832-3.398s-0.832,1.872-1.526,2.774   c-0.693,0.901-1.387,2.081-2.219,2.773c-0.833,0.693-1.873,1.525-2.844,1.457c-0.971-0.069-2.497-1.181-3.329-2.496   c-0.833-1.318-2.219-4.302-2.358-5.826c-0.139-1.526-0.139-3.676-0.139-3.676L2.238,400.469z"
   id="path4037" />
	<path
   d="M46.696,469.132c0,0,2.289,1.872,2.844,5.34c0.312,1.948,1.317,7.562,1.733,12.484c0.417,4.925,1.665,12.693,3.26,17.825   c1.595,5.132,4.23,12.899,4.508,16.507c0.278,3.606,0.417,12.762-0.485,19.837c-0.901,7.074-2.011,14.079-2.774,19.627   c-0.763,5.549-1.664,15.536-2.15,21.501c-0.485,5.965-0.416,19.212-0.416,23.305s0,13.663,0.485,20.529   c0.485,6.866,3.19,20.669,3.814,25.87c0.625,5.202,2.428,17.895,2.497,23.234c0.069,5.341,0.624,24.553,0.624,24.553h1.249   c0,0-0.416-10.889-0.694-18.24c-0.277-7.353-0.416-15.536-1.109-21.016c-0.694-5.479-2.705-16.924-3.537-22.819   c-0.833-5.896-2.081-16.229-2.15-22.888c-0.07-6.658-0.486-21.848,0-28.437c0.485-6.59,2.15-22.126,2.913-27.466   c0.763-5.341,3.676-18.519,4.092-23.443c0.416-4.924,1.526-9.433,0.416-15.188c-1.109-5.757-4.37-12.415-5.618-16.646   c-1.249-4.23-2.289-7.769-2.844-12.9s-1.041-12.346-0.069-14.772c0.971-2.428,2.011-2.149,2.011-2.149L46.696,469.132z"
   id="path4039" />
	
		<line
   fill="none"
   stroke="#000000"
   stroke-width="0.5549"
   stroke-linecap="round"
   x1="206.46"
   y1="0.277"
   x2="405.169"
   y2="0.277"
   id="line4041" />
	
		<line
   fill="none"
   stroke="#000000"
   stroke-width="0.5549"
   stroke-linecap="round"
   x1="60.914"
   y1="699.744"
   x2="426.219"
   y2="699.744"
   id="line4043" />
	<path
   fill="#A7A9AC"
   d="M355.48,12.673c4.233,3.6,9.134,5.696,13.796,8.412c-3.673-0.711-6.601-3.021-9.885-4.648   c-4.636-2.296-7.867-6.664-12.456-8.929c-2.652-1.31-5.306-2.753-8.178-3.623C344.979,4.461,350.548,8.481,355.48,12.673z"
   id="path4045" />
	<path
   fill="#A7A9AC"
   d="M384.356,43.511c4.823,1.479,9.124,3.586,13.786,5.274c2.452,0.887,3.706-1.497,2.535-3.125   c-3.782-5.264-7.143-10.007-11.19-14.878c-1.322-1.593-2.833-3.598-5.245-4.069c-4.541-0.888-9.469-0.274-12.746-3.963   c4.851,1.855,10.275,2.126,14.726,4.386c6.562,3.333,9.278,10.864,14.44,16.369c1.446,1.542,1.307,5.918-0.271,5.807   c-11.358-0.81-20.788-8.724-32.299-10.575c-1.5-0.242-3.786-0.264-4.89,1.786c-2.461,4.574,0.023,9.848,3.853,12.745   c-4.59-2.775-9.762-4.63-13.315-8.878c3.122,1.086,5.38,3.608,8.322,4.994c0.807-1.949-0.717-3.741-0.327-5.498   c0.292-1.324,0.433-2.631,0.733-3.968c0.062-0.283-0.592-0.706-0.961-1.076C369.556,35.385,376.726,41.172,384.356,43.511z"
   id="path4047" />
	<path
   fill="#A7A9AC"
   d="M314.44,26.819c2.284-1.163,4.512-2.56,7.117-2.96c-5.084,3.484-10.975,5.086-16.646,7.213   C307.56,28.531,311.277,28.429,314.44,26.819z"
   id="path4049" />
	<path
   fill="#A7A9AC"
   d="M288.543,23.13c-1.561-2.475-2.75-4.932-4.715-7.039c6.4,4.317,6.854,12.879,6.658,19.975   C288.656,31.84,291.214,27.371,288.543,23.13z"
   id="path4051" />
	<path
   fill="#A7A9AC"
   d="M280.016,4.97c-0.371-1.125-1.783-1.872-1.181-3.306c1.608,1.874,2.524,4.226,2.22,6.658   C280.602,7.24,280.385,6.094,280.016,4.97z"
   id="path4053" />
	<path
   fill="#A7A9AC"
   d="M284.355,7.201c-0.191,0.428-0.543,0.718-1.082,0.566c0.688-0.896,1.615-3.391,3.328-2.219   C285.251,5.288,284.812,6.183,284.355,7.201z"
   id="path4055" />
	<path
   fill="#A7A9AC"
   d="M337.64,6.697c-1.184-0.289-2.386-0.25-3.318-1.149c2.755-0.461,5.128,0.321,6.657,2.774   C339.644,8.219,338.886,7.001,337.64,6.697z"
   id="path4057" />
	<path
   fill="#A7A9AC"
   d="M308.52,0.277c0,0-3.605,3.051-7.213,4.438c-3.606,1.387-8.877,4.023-10.682,4.994   c-1.803,0.971,6.658-2.774,10.266-4.439c3.606-1.665,5.688-2.358,7.074-3.19s2.497-1.803,2.497-1.803H308.52z"
   id="path4059" />
	<path
   fill="#A7A9AC"
   d="M323.085,4.854c0.555-1.942,0.277-3.19,2.219-3.884c1.942-0.693,2.774-0.416,3.884,0.693   c1.11,1.11,1.942,2.081,2.221,2.913c0.276,0.833-0.277,1.803-0.693,0.971c-0.416-0.833-1.248-2.913-2.636-3.468   c-1.387-0.555-2.636-0.277-3.19,0.417C324.333,3.19,323.085,4.854,323.085,4.854z"
   id="path4061" />
	<path
   fill="#A7A9AC"
   d="M328.633,18.033c0.971-3.052,2.636-6.936,5.271-6.104c2.636,0.832,4.577,1.942,4.717,4.994   c0.138,3.052-0.833,6.104-3.191,7.629c-2.356,1.526-20.112,8.045-25.662,10.265c-5.549,2.219-11.789,4.716-13.455,5.826   c-1.664,1.109-2.635,2.219-2.635,3.468s0.971,1.387,3.328,4.023c2.358,2.635,4.023,5.687,4.578,9.571   c0.555,3.884,0.277,6.797,0.416,8.184c0.139,1.387,0.832,2.636,2.357,2.081c1.525-0.555,12.9-4.578,18.864-6.381   c5.966-1.803,17.201-5.132,18.173-6.936c0.971-1.804,0.556-4.162,0-5.826c-0.556-1.665-1.388-5.549-0.556-6.658   c0.833-1.11,3.052-1.249,4.439,0.139c1.387,1.387,3.605,4.161,4.161,6.52c0.555,2.359,0.692,7.352,0.139,8.323   c-0.555,0.971-1.803,2.081-1.803,2.081s1.94-5.133,1.387-7.491c-0.555-2.358-1.249-5.133-2.636-6.381   c-1.389-1.249-3.329-3.468-4.162-2.497c-0.832,0.971-1.109,2.358-0.556,4.578c0.555,2.22,1.249,4.578,0.973,6.104   c-0.277,1.526-1.665,3.19-6.798,4.994c-5.132,1.804-18.864,5.549-22.193,6.797s-8.323,2.913-9.71,3.19   c-1.389,0.277-3.329-0.278-3.469-2.358c-0.139-2.081-0.832-8.461-2.497-11.929c-1.664-3.468-5.964-8.601-5.825-9.988   c0.139-1.387,1.109-3.052,2.496-3.884c1.388-0.832,12.207-5.687,17.34-7.352s18.172-6.242,21.224-8.045   c3.053-1.803,4.438-4.021,4.438-6.242c0-2.219-0.693-3.606-1.804-4.578c-1.109-0.971-2.774-1.665-4.022-0.555   C330.714,14.703,328.633,18.033,328.633,18.033z"
   id="path4063" />
	<path
   fill="#A7A9AC"
   d="M350.003,32.231c-0.364,1.076-1.264,1.408-1.743,2.21c-1.296,2.168-0.336,4.397-0.067,6.618   c-2.722-2.814,0.214-7.043,1.267-10.124c1.156-3.385-2.203-7.071-5.15-9.296C348.112,22.629,351.576,27.596,350.003,32.231z"
   id="path4065" />
	<path
   fill="#A7A9AC"
   d="M360.745,61.104c0.332-0.404,0.875-0.511,1.213-0.866c3.121-3.277,5.792-6.139,9.541-9.135   c1.945-1.556,4.784-0.89,6.975,0.34c3.267,1.833,5.061,5.11,5.994,8.69c0.346,1.318-0.058,2.572,0.089,3.89   c0.193,1.733,0.123,3.428-0.392,5.12c-0.67,2.207-1.819,4.642-4.285,5.249c-2.163,0.533-4.251,0.678-6.363,1.31   c-2.679,0.8-3.368,3.674-5.066,5.599c-0.491,0.556-1.068,1.072-1.739,1.444c0.399-0.671,0.953-1.271,1.43-1.879   c1.626-2.077,2.104-4.82,4.346-6.313c2.053-1.367,4.14-0.333,6.263-1.706c0.622-0.402,2.182-1.342,2.664-1.896   c1.875-2.148,2.302-5.248,2.129-8.177c-0.134-2.279-1.114-4.27-2.684-6.219c-1.285-1.595-2.006-3.761-4.043-4.396   c-1.421-0.441-3.052-1.039-4.352-0.118c-1.688,1.195-2.832,2.577-4.416,3.869c-1.639,1.338-3.12,2.834-4.988,3.713   c-0.729,0.344-1.36,0.908-2.174,1.064"
   id="path4067" />
	<path
   fill="#A7A9AC"
   d="M384.327,59.022c3.695,0.903,8.26,1.094,10.297,4.775c1.357,2.452,2.31,4.978,3.367,7.541   c0.812,1.973,2.242,3.605,2.812,5.725c0.255,0.944-0.062,1.892-0.85,2.418c-0.303,0.201-0.762,0.319-1.201,0.205   c-1.659-0.432-3.165-1.218-4.854-1.243c1.717-0.732,3.681,0.15,5.533-0.211c0.169-0.033,0.433-0.405,0.372-0.604   c-0.43-1.441-1.354-2.637-1.833-4.057c-0.812-2.419-1.767-4.702-2.771-7.021c-0.492-1.136-1.166-2.219-2.163-3.056   c-1.902-1.599-4.339-1.737-6.445-3.023C385.805,59.989,385.169,59.398,384.327,59.022z"
   id="path4069" />
	<path
   fill="#A7A9AC"
   d="M382.801,71.091c0.999,0.917,2.11,1.649,3.134,2.56c3.162,2.81,6.035,5.42,9.406,8.051   c2.667,2.082,5.667,2.857,8.961,3.401c2.112,0.349,3.503,1.72,5.058,3.003c1.689,1.394,3.238,2.929,3.977,4.947   c0.517,1.415,1.053,2.82,1.602,4.219c1.203,3.074,2.981,5.832,4.171,8.929c0.848,2.21,1.396,4.984-0.578,6.713   c-0.751,0.658-1.768-0.031-2.533-0.427c-5.232-2.71-9.575-6.775-15.3-8.243c0.402-0.85,1.486-0.78,2.194-0.495   c5.017,2.023,9.154,5.438,14.035,7.844c0.605,0.299,1.403,0.308,1.733-0.183c0.391-0.582,0.323-1.344,0.154-2.021   c-0.116-0.469-0.126-0.969-0.286-1.375c-1.765-4.461-3.896-8.616-5.982-12.953c-0.248-0.515-0.428-1.085-0.655-1.619   c-1.462-3.447-4.323-6.122-7.888-7.303c-2.493-0.827-5.145-1.072-7.483-2.398c-0.144-0.081-0.385,0.032-0.521-0.057   c-5.207-3.375-9.054-7.377-13.638-11.338c-0.037-0.032,0.194-0.763,0.718-0.978C382.986,71.275,382.893,71.184,382.801,71.091z"
   id="path4071" />
	<path
   fill="#A7A9AC"
   d="M346.805,60.202c-3.605,2.636-6.797,4.3-12.899,6.104c-6.104,1.804-16.23,4.3-20.253,5.687   c-4.021,1.387-6.937,2.22-7.629,4.162c-0.693,1.942,0.692,3.884,2.773,6.381s4.854,6.52,5.41,11.93   c0.555,5.41,0.693,10.542,1.387,12.068c0.694,1.526,1.805,2.081,5.271,1.387c3.468-0.694,13.178-4.162,20.112-5.687   c6.937-1.526,11.652-2.636,15.119-2.774c3.47-0.139,4.439-0.555,5.55-2.636c1.109-2.081,0.693-5.41,2.357-8.045   c1.665-2.636,3.745-4.023,5.826-3.606c2.081,0.416,4.162,3.329,2.913,8.461c-1.248,5.133-0.556,6.52-4.577,7.907   c-4.023,1.387-15.398,3.746-20.946,5.132c-5.548,1.387-17.895,4.578-21.501,5.826c-3.605,1.248-6.242,1.665-6.52,3.19   c-0.278,1.525-0.416,2.774,0.832,4.578c1.249,1.803,5.271,6.104,6.104,8.877c0.833,2.774,3.468,9.433,3.468,14.981   s0.417,4.716,1.249,4.716s9.987-2.774,13.871-3.606c3.886-0.832,13.039-2.636,18.449-3.606c5.41-0.97,10.403-1.11,11.652-2.913   c1.248-1.804,1.664-6.659,1.803-9.433c0.139-2.774,0.417-6.797,1.526-7.491c1.108-0.694,2.08-1.11,3.745,1.526   c1.663,2.635,4.021,5.548,3.328,8.877c-0.692,3.33-0.276,6.797-3.052,9.294c-2.774,2.497-9.571,4.994-14.148,5.965   c-4.577,0.971-14.703,2.358-19.975,3.745c-5.271,1.387-11.792,2.636-13.595,4.023c-1.804,1.387-1.387,1.387,3.19,0   c4.577-1.387,10.959-2.913,16.646-4.023c5.688-1.11,18.033-2.913,21.778-4.716c3.746-1.803,9.016-4.716,9.57-9.155   c0.556-4.439,0.693-8.739-0.416-10.958c-1.108-2.22-3.605-5.549-4.993-5.965c-1.388-0.417-3.606-0.417-4.022,2.774   c-0.416,3.19-0.277,8.877-1.109,11.375c-0.832,2.498-2.22,4.3-6.798,4.854c-4.577,0.555-14.979,3.052-20.807,4.3   c-5.825,1.249-12.623,3.329-14.148,3.329s-2.497,1.942-2.773-4.022c-0.277-5.964-1.249-12.623-3.052-16.229   c-1.805-3.606-5.55-7.075-6.382-8.739s-1.941-2.635,0.972-3.468s14.427-4.3,18.032-5.271c3.606-0.971,12.347-2.358,18.172-3.745   s10.959-1.526,13.315-4.578c2.359-3.052,2.774-4.994,2.637-8.6c-0.14-3.607-0.14-6.243-2.081-7.491s-3.744-1.109-5.825,0.139   s-3.053,2.081-3.745,4.439c-0.694,2.358,0,4.161-1.249,5.965c-1.248,1.803-2.08,3.051-4.993,3.051s-11.791,1.526-15.812,2.636   c-4.022,1.11-11.098,2.774-13.871,3.884c-2.774,1.109-6.104,2.219-7.629,2.219c-1.526,0-2.359,1.11-2.497-2.358   c-0.141-3.468,0.276-11.513-1.11-15.258c-1.387-3.746-5.688-8.462-6.658-10.265c-0.97-1.803-2.219-2.219-1.249-3.329   c0.972-1.11,3.052-2.22,6.659-3.19c3.606-0.971,12.762-3.607,18.311-5.271c5.549-1.664,9.434-2.774,11.374-4.161   C345.834,62.005,346.805,60.202,346.805,60.202z"
   id="path4073" />
	<path
   fill="#A7A9AC"
   d="M373.369,104.244c1-1.534,2.386-2.647,3.793-3.827c2.879-2.411,5.593-4.733,8.984-6.262   c2.767-1.247,5.837-0.933,8.378,0.756c3.663,2.435,6.104,6.139,6.271,10.444c0.126,3.258-0.526,6.504-2.148,9.371   c-0.905,1.598-2.433,2.682-4.338,2.951c-2.906,0.411-5.673-0.141-8.59,0.341c-1.48,0.245-2.752,0.968-4.168,1.345   c3.14-3.92,8.45-2.146,12.882-3.135c1.409-0.314,2.583-1.233,3.261-2.462c1.778-3.232,2.329-6.859,1.986-10.49   c-0.079-0.832-0.421-1.607-0.84-2.334c-0.805-1.4-1.771-2.609-2.923-3.711c-2.179-2.088-5.029-3.615-8.114-3.184   c-0.322,0.045-0.707,0.268-0.938,0.524c-0.447,0.492-0.783,1.049-1.32,1.449c-1.311,0.979-2.869,1.291-4.069,2.331   c-2.479,2.151-4.762,4.38-7.83,5.476"
   id="path4075" />
	<path
   fill="#A7A9AC"
   d="M398.198,115.202c0.371,0.429,0.514,1.02,0.997,1.35c2.731,1.866,4.253,4.721,7.232,5.725   c2.958,0.997,6.294,1.241,8.642,3.521c0.88,0.854,1.63,1.796,2.23,2.882c0.982,1.771,1.52,3.608,2.628,5.329   c0.778,1.21,1.83,2.119,2.564,3.321c2.026,3.317,4.197,6.251,5.648,9.783c0.376,0.911,0.336,1.927-0.079,2.717   c-0.617,1.18-2.018,0.938-3.226,0.708c-1.58-0.302-2.737-1.317-4.108-2.021c-3.938-2.021-7.819-3.887-11.572-6.127   c0.308-0.654,0.909-0.458,1.375-0.359c0.821,0.176,1.599,0.337,2.368,0.641c4.608,1.816,8.443,4.831,12.927,6.878   c0.354,0.162,0.841,0.151,1.206-0.112c0.652-0.471,0.566-1.379,0.103-1.863c-0.515-0.535-0.826-1.163-1.11-1.758   c-2.334-4.903-5.812-8.893-8.176-13.737c-1.142-2.338-1.987-5.186-4.327-6.323c-2.72-1.323-5.747-1.802-8.472-3.172   c-2.092-1.052-4.254-1.99-5.804-3.841c-0.826-0.986-1.601-1.896-2.436-2.849C397.243,115.604,397.891,115.743,398.198,115.202z"
   id="path4077" />
	<path
   fill="#A7A9AC"
   d="M384.327,143.777c2.387-2.314,5.026-4.288,8.119-5.69c2.143-0.972,3.929-2.596,6.331-3.066   c3.353-0.657,6.883,0.479,8.91,3.403c1.257,1.81,1.965,3.801,2.095,5.913c0.107,1.752,0.296,3.487-0.195,5.271   c-0.626,2.275-1.75,4.208-2.788,6.238c-2.246,0.886-4.502,1.271-6.946,1.749c-0.787,0.154-1.584-0.046-2.337,0.224   c-2.353,0.845-3.891,2.749-5.47,4.622c-0.713,0.845-1.026,2.151-2.032,2.837c-0.204-0.462-0.125-0.962,0.049-1.367   c1.019-2.374,2.696-4.227,4.858-5.774c1.25-0.895,2.508-1.532,3.987-1.777c2.216-0.367,4.377-0.297,6.355-1.636   c0.947-0.642,1.703-1.337,2.289-2.257c0.398-0.624,0.755-1.323,0.833-2.04c0.413-3.753,0.769-7.649-1.407-11.026   c-0.87-1.351-1.815-2.551-3.386-3.072c-1.53-0.509-3.173-0.758-4.666-0.221c-4.773,1.715-8.917,4.402-13.409,6.849   C385.168,143.147,384.323,143.026,384.327,143.777z"
   id="path4079" />
	<path
   fill="#A7A9AC"
   d="M336.401,154.805c-2.774,1.387-4.439,0.555-4.162,2.358c0.277,1.803,2.773,4.3,3.885,7.629   c1.109,3.329,3.467,8.461,3.467,13.316s-0.691,7.768,0.417,8.6c1.109,0.833,2.08,1.11,4.3,0.694   c2.221-0.417,12.623-4.023,18.449-4.716c5.826-0.694,12.484-0.833,16.091-0.971c3.607-0.138,5.55-0.555,6.658-1.526   c1.109-0.971,0.972-1.942,1.942-2.774s1.524-0.416,1.94-2.913c0.417-2.497,0-5.964,0.556-7.906c0.556-1.942,1.665-4.3,1.665-4.3   s-2.081,1.249-2.497,4.855c-0.416,3.607,0.14,4.855-0.693,6.797c-0.832,1.942-1.248,2.636-2.497,2.913   c-1.248,0.277-3.329,1.803-3.329,1.803s2.358-1.11,2.358-0.555s0.555,1.526-0.971,1.942c-1.526,0.416-7.631,0.139-13.039,0.693   c-5.41,0.555-13.317,1.387-17.617,2.913c-4.3,1.526-8.878,3.329-10.403,2.913c-1.526-0.416-1.665,1.942-1.804-1.803   c-0.14-3.745,0.416-7.907-0.832-13.316c-1.249-5.41-2.081-9.433-3.745-11.097c-1.665-1.665-3.468-1.387-2.774-2.913   C334.46,155.915,336.401,154.805,336.401,154.805z"
   id="path4081" />
	<path
   fill="#A7A9AC"
   d="M391.609,162.295c4.16,0.694,6.104,2.081,6.936,4.855s1.665,7.769,0,11.097   c-1.664,3.329-2.773,6.797-7.074,7.907c-4.3,1.11-15.259,3.052-21.361,3.745c-6.104,0.694-13.455,1.526-16.784,2.358   s-8.045,2.774-8.602,3.468c-0.555,0.694-1.108,0.416-0.555,1.803c0.554,1.387,4.717,7.907,4.162,16.368   c-0.555,8.462-1.388,10.681-1.526,11.514c-0.139,0.832-0.832,2.219,1.388,2.358s13.454-0.971,18.032-1.249   c4.577-0.277,10.958-0.277,15.397-0.971c4.438-0.694,6.52-1.387,10.126-1.665c3.605-0.278,6.242,0.555,8.185-1.11   c1.941-1.665,3.189-1.942,2.912-3.745c-0.276-1.804-1.387-4.3-1.524-5.826c-0.139-1.526,0.139-3.468,1.388-4.855   c1.248-1.387,2.08-2.497,4.3-2.081c2.219,0.416,4.3,0.694,5.548,3.051c1.249,2.358,2.774,6.104,2.081,9.294   c-0.692,3.19-2.357,7.768-5.688,9.988c-3.329,2.219-9.328,3.78-13.628,4.473c-4.302,0.694,9.467-1.56,12.656-5.028   c3.19-3.468,5.826-7.629,5.55-11.513c-0.277-3.884-0.973-7.213-3.606-8.184c-2.636-0.971-4.301-1.248-5.688,0.277   c-1.389,1.526-1.805,2.636-1.389,5.41c0.417,2.774,1.249,4.439,0.973,5.688c-0.277,1.249-1.249,3.329-3.329,4.3   c-2.081,0.971-4.855,0.416-9.571,0.971c-4.717,0.555-12.068,2.497-16.368,2.636c-4.301,0.139-10.82,0-14.427,0.416   c-3.606,0.417-7.629,2.081-10.403,1.665c-2.773-0.416-4.301-0.832-4.161-2.774c0.139-1.942,1.109-7.768,0.972-11.791   c-0.14-4.022-1.11-9.155-2.913-13.178c-1.804-4.022-2.081-4.578-1.249-5.965c0.833-1.387,4.162-3.606,7.353-4.3   c3.19-0.694,13.871-2.358,19.836-2.774c5.966-0.416,12.207-1.526,16.229-2.358c4.022-0.832,9.571-2.913,10.681-6.936   c1.11-4.023,2.081-6.797,1.388-9.987c-0.692-3.19-1.804-4.578-3.189-5.41C393.274,163.405,391.609,162.295,391.609,162.295z"
   id="path4083" />
	<path
   fill="#A7A9AC"
   d="M405.064,229.988c-3.469,1.109-8.323,2.358-16.229,2.774c-7.906,0.417-19.143,1.249-23.859,1.665   c-4.716,0.417-11.374,1.804-13.593,2.774c-2.22,0.971-3.885,1.942-3.885,3.052c0,1.109,1.388,2.497,2.773,5.271   c1.387,2.774,3.19,7.213,2.774,11.791s-0.693,8.461-1.664,11.236c-0.972,2.774-1.804,4.854-0.556,5.964   c1.249,1.11,4.438,1.942,8.045,1.804c3.606-0.139,19.837-3.052,25.802-3.052c5.964,0,15.674,0.555,17.2,0.277   c1.525-0.277,3.329-1.526,4.854-3.052c1.525-1.526,3.052-5.133,3.19-7.075c0.139-1.941,2.357-4.855,4.022-5.687   c1.663-0.833,3.328-1.387,5.133-0.833c1.803,0.555,5.132,3.052,5.271,5.688c0.139,2.635,0,9.154-2.914,11.791   c-2.912,2.635-6.657,5.271-11.651,6.242c-4.993,0.971-14.98,1.11-21.917,1.526c-6.936,0.416-15.951,0.693-20.113,1.109   c-4.161,0.416-9.571,1.249-11.374,2.358c-1.804,1.11-3.052,1.804-2.636,3.884c0.417,2.081,4.021,4.716,4.3,7.075   c0.277,2.358,0.694,8.461-0.277,12.484c-0.971,4.023-3.051,7.907-3.189,9.433c-0.14,1.526,0.14,3.191,2.081,3.052   c1.94-0.139,11.514-2.081,18.864-2.081c7.352,0,17.339-0.694,21.917-1.249c4.577-0.555,6.104-0.833,9.017-0.139   c2.914,0.693,7.769,0.693,9.571-0.555c1.804-1.249,4.022-4.716,4.993-7.63c0.972-2.913,1.526-5.41,4.161-5.548   c2.636-0.139,4.578,0.139,5.271,2.636c0.692,2.497,1.525,9.293-0.277,11.93c-1.804,2.635-5.549,5.826-7.906,6.242   c-2.357,0.417-4.578-0.693-6.797-0.416c-2.22,0.277-5.133,2.357-9.433,2.357c-4.301,0-14.704-0.693-21.778-0.138   c-7.075,0.555-19.143,2.913-21.362,3.883c-2.22,0.972-3.746-0.277-3.468,2.081c0.277,2.357,3.606,5.271,3.329,12.068   c-0.277,6.796-1.942,11.929-2.913,14.843c-0.972,2.912-2.497,6.24-1.108,7.768c1.387,1.525,6.24,2.357,11.79,1.664   c5.549-0.693,21.501-2.219,26.078-2.219s7.906,0.693,11.651,1.109s6.938,0.971,9.849-0.693c2.913-1.665,6.382-3.605,6.658-5.549   c0.277-1.943-0.692-6.242,1.665-8.185s2.912-2.774,5.132-2.358c2.221,0.416,4.994,2.496,5.133,5.826   c0.14,3.33-1.663,11.235-4.716,14.148c-3.052,2.913-8.185,5.549-8.185,5.549s7.49-2.081,8.878-4.16   c1.387-2.082,3.745-4.439,4.438-8.602c0.694-4.162,1.942-7.214,0.14-9.71c-1.805-2.497-4.577-4.855-6.381-4.717   c-1.805,0.14-5.549,1.25-6.382,3.469c-0.831,2.219-0.555,5.687-1.247,7.353c-0.693,1.663-5.271,5.688-8.186,6.241   c-2.912,0.554-8.738-0.694-13.039-1.108c-4.3-0.418-17.894,0.414-23.581,1.108c-5.688,0.693-12.899,1.664-15.259,1.388   c-2.359-0.277-3.884-0.834-3.19-3.19c0.694-2.356,4.161-8.738,4.438-14.564c0.277-5.826-0.832-11.098-1.803-13.039   c-0.973-1.942-0.973-3.053-1.109-3.607c-0.14-0.555-0.694-0.971,1.248-1.664c1.941-0.694,7.629-2.22,11.651-3.052   c4.022-0.833,16.646-2.081,21.64-1.665c4.994,0.417,8.739,0.972,11.236,0.555c2.496-0.416,6.241-2.358,8.6-2.22   c2.359,0.139,4.855,1.387,6.938,0.694c2.08-0.694,5.408-1.387,6.936-4.162c1.525-2.774,3.468-7.213,2.497-11.652   c-0.972-4.438-2.081-6.658-3.746-7.075c-1.664-0.416-4.854-0.693-6.38,0.971c-1.526,1.665-3.052,7.213-4.439,9.017   c-1.387,1.803-4.576,4.023-7.073,4.023s-4.577-0.971-6.242-1.249c-1.664-0.277-4.023,0-6.104,0.694   c-2.081,0.693-7.49,0.833-13.179,1.11c-5.688,0.277-14.147,0.416-18.31,0.833c-4.161,0.416-8.739,1.109-9.571,1.109   s-0.832-1.249,0.139-3.052c0.971-1.803,4.022-10.819,3.329-16.091c-0.693-5.271-4.3-9.433-4.854-10.681   c-0.556-1.249-0.833-2.22,1.248-3.329c2.079-1.11,8.878-2.497,15.535-2.774c6.658-0.277,18.032-0.555,24.69-1.11   c6.659-0.555,13.733-0.417,18.728-3.329c4.993-2.914,8.738-5.133,9.154-10.682c0.417-5.548-0.276-8.739-1.664-10.264   c-1.387-1.526-3.884-3.468-6.52-3.329c-2.637,0.138-6.521,1.525-7.629,3.606c-1.11,2.081-1.11,6.38-2.221,8.184   c-1.108,1.803-2.773,4.716-6.798,4.577c-4.021-0.138-10.958-0.138-17.478,0.417c-6.521,0.555-14.427,1.803-19.281,2.497   c-4.854,0.693-9.571,0.693-10.681-0.139c-1.11-0.833-1.389-2.081,0.139-5.549c1.525-3.467,2.913-13.177,1.941-17.616   c-0.972-4.438-4.022-8.739-4.717-9.571c-0.692-0.832-2.496-2.497,1.805-3.746c4.3-1.248,14.426-2.774,19.975-3.051   s12.751-0.688,16.923-0.971c8.617-0.586,16.507-4.022,16.507-4.022"
   id="path4085" />
	<path
   fill="#A7A9AC"
   d="M348.746,680.81c3.885-1.941,6.659-1.941,8.601-0.555c1.942,1.387,1.942,2.774,3.19,4.438   c1.249,1.665,3.605,2.913,5.271,1.941c1.664-0.972,6.521-8.184,8.739-10.402c2.219-2.221,6.521-6.799,6.797-8.879   c0.277-2.08,1.248-4.577,1.248-5.965s0.14-3.884-0.832-5.271c-0.972-1.388-4.716-2.913-7.353-2.08   c-2.635,0.832-7.49,1.387-9.434,1.664c-1.94,0.276-4.438,1.388-6.657,0.692c-2.221-0.692-4.438-2.911-5.55-4.992   c-1.108-2.081-2.495-3.19-6.519-5.134c-4.022-1.94-12.623-5.271-20.392-8.184s-21.224-7.63-24.691-9.433   c-3.468-1.805-8.601-4.023-10.681-4.578c-2.082-0.556-3.33-1.388-3.746,1.108c-0.415,2.497,1.109,9.572-0.555,15.121   c-1.664,5.548-6.242,12.761-8.322,15.951s-5.271,8.462-6.797,10.959c-1.525,2.496-3.053,3.606-2.774,5.41   c0.276,1.803,1.942,2.635,4.161,3.329c2.22,0.692,11.375,3.329,17.201,4.993c5.826,1.663,17.479,4.992,23.165,7.213   c5.688,2.22,10.266,4.022,13.595,4.854s5.271,2.08,7.629,2.22c2.358,0.139,3.329,1.388,4.855-1.249   c1.524-2.636,3.052-6.936,5.964-8.601c2.914-1.664,3.052-3.189,6.104-2.497c3.052,0.694,4.717,0.972,6.242,2.774   c1.526,1.804,2.358,1.249,3.884,3.052c1.526,1.804,2.22,2.081,3.606,3.469c1.388,1.387,2.357,3.329,2.357,4.438   s-0.139,3.12-0.139,3.12s-0.139-2.844-1.248-4.646s-2.22-2.635-3.746-4.438c-1.524-1.804-2.912-2.08-4.577-3.606   c-1.664-1.525-2.08-2.358-4.438-2.913c-2.358-0.555-5.41-0.555-7.214,1.388c-1.804,1.941-2.22,2.773-3.189,5.132   c-0.972,2.358-1.249,4.161-3.329,5.55c-2.081,1.387-3.052,1.664-6.381,0.555c-3.329-1.11-14.98-4.162-24.137-7.629   c-9.155-3.469-16.229-5.966-21.225-7.491c-4.992-1.525-13.455-4.021-16.091-4.854c-2.635-0.832-5.271-1.805-4.577-4.161   c0.693-2.358,4.717-8.739,6.797-11.652c2.082-2.913,5.41-9.294,7.908-15.396c2.496-6.104,2.635-8.878,2.911-13.039   c0.277-4.161-0.971-6.937,0.416-8.323c1.388-1.387,1.526-2.358,3.746-1.803c2.22,0.555,5.132,1.664,10.126,3.744   c4.993,2.08,16.507,6.658,22.332,8.879c5.826,2.22,11.792,4.3,16.646,6.241s9.154,3.329,11.375,4.855   c2.219,1.524,3.743,3.328,5.408,5.409c1.664,2.08,2.913,3.605,5.55,3.605c2.636,0,5.825-0.972,8.321-1.108   c2.497-0.141,4.578-0.973,7.354-0.973c2.774,0,4.162-0.971,5.965,1.249c1.804,2.221,2.497,3.885,2.357,5.826   s-0.417,3.745-0.972,5.688c-0.555,1.941-1.248,3.746-3.329,6.381c-2.08,2.636-3.605,4.022-5.409,6.104s-2.637,4.439-4.161,6.242   c-1.525,1.804-2.637,3.745-4.855,3.468c-2.219-0.276-4.161,0-5.409-2.081c-1.249-2.08-1.108-2.635-2.773-3.883   c-1.664-1.249-1.804-1.941-3.745-1.804C351.383,680.394,348.746,680.81,348.746,680.81z"
   id="path4087" />
	<path
   fill="#A7A9AC"
   d="M376.767,663.887c-1.108,2.773-2.913,5.688-4.438,8.045c-1.526,2.358-3.19,4.578-4.301,5.41   c-1.109,0.833-3.606,2.636-4.022,3.606c-0.416,0.97-0.555,3.329-0.555,3.329s0.692-2.497,2.636-4.161   c1.941-1.664,5.271-4.855,6.242-6.521s2.913-5.133,3.329-6.242C376.074,666.245,376.767,663.887,376.767,663.887z"
   id="path4089" />
	<path
   fill="#A7A9AC"
   d="M386.478,652.789c0.556,3.189,2.636,10.819,4.301,13.456c1.664,2.635,4.161,5.826,5.825,7.352   c1.664,1.526,2.357,4.161,3.606,5.134c1.248,0.971,4.3,2.079,5.132,3.188c0.832,1.11,2.497,3.468,1.942,5.826   c-0.556,2.357-2.081,4.717-2.221,6.242c-0.139,1.525,0.277,5.133,0.277,5.133v0.624h-1.248c0,0-0.832-2.15-0.276-5.062   c0.555-2.914,2.22-3.469,2.22-5.966s1.108-3.329-0.972-4.993s-4.577-2.636-7.074-5.825c-2.497-3.19-2.221-3.885-4.161-5.825   c-1.942-1.942-4.162-4.439-5.41-8.463C387.171,659.587,386.478,652.789,386.478,652.789z"
   id="path4091" />
	<path
   fill="#A7A9AC"
   d="M388.835,662.36c0.693-2.913,1.248-4.854,3.606-5.825c2.357-0.973,5.688-1.665,7.352,0.276   c1.665,1.941,4.439,7.906,6.104,8.322c1.665,0.416,3.053,0.277,4.162-0.555s6.382-5.826,7.49-6.937   c1.109-1.109,3.606-3.884,3.468-5.409s0-7.353,0.14-10.682c0.139-3.329,1.388-9.433,1.248-10.819   c-0.139-1.388,0.14-2.912-2.496-4.854c-2.637-1.942-6.797-4.854-8.462-7.769s-2.08-4.717-2.497-5.271   c-0.416-0.555-1.248-1.665-1.248-1.665s2.22,0.972,4.021,4.162c1.805,3.189,4.717,6.381,6.798,8.185   c2.08,1.804,4.438,3.052,4.577,4.716c0.14,1.665-0.832,9.295-1.109,13.04c-0.277,3.744,0.277,7.352,0,9.433   c-0.277,2.08-0.693,4.716-2.22,6.241c-1.524,1.525-4.993,4.301-6.657,5.966c-1.665,1.664-4.301,3.884-6.104,3.467   c-1.804-0.415-3.468-2.635-5.133-4.993c-1.664-2.357-2.636-4.162-4.716-4.438c-2.081-0.277-3.746,0.14-5.271,1.249   C390.362,659.308,388.835,662.36,388.835,662.36z"
   id="path4093" />
	<path
   fill="#A7A9AC"
   d="M417.631,652.002c-2.036,3.739-6.418,4.715-8.405,8.277c0.386-4.164,4.452-5.014,6.64-7.782   c2.44-3.092,3.319-6.786,2.794-10.527C419.523,645.263,419.362,648.821,417.631,652.002z"
   id="path4095" />
	<path
   fill="#808080"
   d="M420.323,635.312c0.084,1.105-1.611,1.5-1.109,2.773C417.83,637.102,419.098,635.438,420.323,635.312z"
   id="path4097" />
	<path
   fill="#A7A9AC"
   d="M407.007,611.591c1.109-1.248,3.884-4.021,7.074-5.271s5.271-1.109,7.213-0.973   c1.942,0.141,4.855,1.11,4.855,1.11s3.468-2.358,4.576-3.468c1.109-1.11,2.358-3.469,2.637-4.023   c0.277-0.554,1.665-2.912,1.665-2.912s-0.557,3.885-1.805,5.133s-3.052,3.884-3.744,4.438c-0.694,0.556-1.805,0.972-1.805,1.804   c0,0.833-0.416,2.497,0.832,2.497c1.249,0,3.746-0.555,4.855-0.832c1.108-0.276,2.913,0,3.605-1.249   c0.693-1.248,1.389-8.045,3.19-10.958c1.804-2.913,4.578-6.242,5.133-7.906s0.139-4.161-0.139-6.521   c-0.278-2.358-0.693-3.052-1.942-3.19c-1.248-0.139-2.22,0-3.884-1.803c-1.665-1.804-6.104-5.965-6.938-7.074   c-0.832-1.109-1.524-3.469-1.524-3.469s-0.972,1.665-3.745,2.637c-2.773,0.971-5.688,2.496-8.322,1.941   c-2.636-0.555-6.936-3.468-8.878-4.854c-1.941-1.388-2.636-2.497-4.854-2.636c-2.221-0.14-7.63,0.277-7.63,0.277   s3.469-1.388,5.688-1.388c2.22,0,2.914,0.276,7.63,3.468c4.717,3.189,4.854,4.994,8.602,4.301c3.744-0.693,7.213-1.249,8.737-2.497   c1.526-1.249,4.022-3.052,4.022-3.052s-0.415,1.525,1.249,4.021c1.665,2.497,4.3,4.994,5.688,6.521s1.941,2.774,3.468,2.774   c1.525,0,2.637-0.277,2.913,0.971c0.277,1.248,1.525,4.994,1.109,7.214c-0.416,2.219-1.665,5.132-3.329,7.352   c-1.665,2.22-2.913,5.966-3.605,8.739c-0.693,2.774-0.972,5.271-2.221,5.964c-1.248,0.694-3.468,1.249-5.271,1.526   s-3.745,1.11-4.854,0.277c-1.108-0.832-0.692-1.941-1.94-2.774c-1.249-0.832-2.221-1.664-5.549-1.248   c-3.329,0.416-5.966,1.664-7.906,3.19c-1.942,1.524-4.578,4.16-4.578,4.16L407.007,611.591z"
   id="path4099" />
	<path
   fill="#A7A9AC"
   d="M399.724,539.668c4.729,1.948,10.007,1.047,14.98,0.988c2.161-0.024,4.192-0.902,6.401-1.299   c2.906-0.522,5.646-0.553,8.564,0.1c0.645,0.145,1.125,0.681,1.478,1.224c0.885,1.368,1.519,2.692,2.396,4.047   c1.241,1.919,2.443,3.701,2.839,5.916c0.593,3.317-0.117,6.532-1.386,9.513c-1.111,2.611-2.082,5.558-4.479,7.256   c1.211-2.829,2.354-5.644,3.201-8.637c0.81-2.854,1.402-5.781,0.551-8.664c-0.898-3.044-2.159-5.809-4.111-8.439   c-2.426-3.271-6.994-1.826-10.459-1.587c-5.388,2.396-11.365,2.174-17.192,1.328c-1.27-0.185-2.436-0.688-3.338-1.605"
   id="path4101" />
	<path
   fill="#A7A9AC"
   d="M435.651,550.071c-0.637-2.766,4.4-3.497,7.226-4.255c1.536-0.413,3.029-0.19,4.39,0.703   c1.312,0.861,2.076,2.213,3.515,2.836c1.914,0.83,3.138-1.107,4.396-2.236c0.897-0.808,1.361-1.874,1.593-3.033   c0.507-2.552,1.495-4.688,2.184-7.094c0.92-3.229,2.518-6.964,0.081-9.896c-1.845-2.219-3.965-3.89-5.956-5.966   c-0.686-0.713-1.348-1.477-2.306-1.854c-0.135-0.053-0.395-0.38-0.523-0.705c-0.721-1.792-2.181-3.027-3.032-4.729   c-0.693-1.386-1.385-2.831-1.021-4.413c0.016,0.542,0.188,1.052,0.461,1.498c1.403,2.289,2.285,4.656,4.058,6.612   c0.89,0.981,1.609,2.015,2.719,2.812c2.006,1.441,3.631,2.811,5.536,4.32c0.608,0.48,1.024,1.12,1.267,1.723   c0.278,0.7,0.721,1.31,0.953,2.034c0.699,2.185,0.166,4.274-0.407,6.353c-0.667,2.419-1.531,4.69-2.102,7.105   c-0.755,3.199-1.828,6.424-4.621,8.4c-1.203,0.853-2.624,0.183-3.805-0.303c-2.567-1.059-4.659-4.477-7.619-3.27   c-2.456,1.003-4.562,2.684-6.843,4.049C435.79,550.58,435.7,550.282,435.651,550.071z"
   id="path4103" />
	<path
   fill="#808080"
   d="M456.976,536.562c-1.836,3.504-2.438,7.447-5.024,10.525c1.254-5.893,5.741-10.437,5.548-16.646   C457.25,532.473,458.04,534.532,456.976,536.562z"
   id="path4105" />
	<path
   fill="#A7A9AC"
   d="M448.413,497.082c0.987,0.521,2.146-0.345,2.998,0.344c2.715,2.189,4.104,5.024,6.066,7.946   c0.885,1.317,2.639,2.359,4.053,1.337c1.121-0.81,1.882-1.93,2.496-3.139c0.332-0.653,0.771-1.25,0.952-1.932   c0.178-0.669,0.235-1.404,0.453-2.025c1.315-3.743,2.49-7.3,3.391-11.268c0.465-2.05,0.255-3.979,0.219-5.967   c-0.029-1.578-0.606-2.981-1.922-3.997c-0.987-0.761-2.195-0.999-3.104-1.771c-0.955-0.813-2.056-1.445-2.703-2.557   c-0.807-1.384-2.291-2.352-3.139-3.912c-0.54-0.992-1.072-1.963-1.361-3.044c-1.007-3.754-2.044-7.325-2.714-11.075   c-0.379,0.802-0.854,1.529-0.698,2.498c0.496,3.09,0.937,6.028,2.164,8.843c0.562,1.286,1.257,2.479,2.004,3.693   c1.743,2.837,3.687,5.299,6.178,7.489c0.77,0.676,1.596,1.293,2.548,1.775c0.474,0.238,0.877,0.743,1.002,1.124   c0.771,2.345,0.521,4.85,0.325,7.307c-0.305,3.829-2.092,7.196-3.381,10.78c-0.376,1.044-0.594,2.229-1.401,3.097   c-0.572,0.615-0.232,1.921-0.862,2.608c-0.427,0.466-0.955,0.936-1.621,0.801c-0.554-0.11-0.981-0.544-1.358-0.95   c-0.405-0.434-0.246-1.088-0.117-1.61c0.709-2.862,1.388-5.52,2.875-8.127c1.07-1.876,1.979-3.836,2.056-6.037   c-0.187,0.973-0.586,1.871-1.02,2.75c-0.918,1.858-2.052,3.497-3.09,5.323c-0.86,1.515-0.704,3.405-1.73,4.706   c-0.635,0.807-1.713-0.721-2.286-1.45c-1.808-2.298-4.033-5.853-7.234-4.452C448.044,496.368,448.628,497.195,448.413,497.082z"
   id="path4107" />
	<path
   fill="#A7A9AC"
   d="M424.623,437.089c2.773-2.081,5.549-3.329,8.185-3.605c2.636-0.278,6.242-0.693,8.602-1.665   c2.356-0.972,5.271-3.19,8.184-2.357c2.913,0.832,6.104,1.248,7.63,5.964c1.525,4.717,2.496,11.931,1.109,14.704   c-1.388,2.774-3.329,6.104-5.271,7.49c-1.94,1.388-4.3,2.22-7.213,1.941c-2.913-0.277-4.022-1.108-5.825-1.665   c-1.805-0.555-3.329-0.692-4.717-0.139c-1.388,0.555-2.22,2.081-4.022,2.497s-5.549-0.832-5.549-0.832s4.161,0.277,7.214-1.248   c3.052-1.525,5.133-2.497,7.489-1.388c2.358,1.108,7.214,3.052,9.987,1.108c2.774-1.94,6.798-5.688,7.354-8.877   c0.555-3.19,0.555-8.739-0.694-11.514c-1.248-2.773-2.08-5.133-4.022-5.965c-1.94-0.832-3.328-2.08-5.688-1.248   c-2.357,0.832-4.022,2.357-7.213,2.912c-3.19,0.556-3.19,0.693-6.104,0.833C431.143,434.175,424.623,437.089,424.623,437.089z"
   id="path4109" />
	<path
   fill="#A7A9AC"
   d="M455.973,454.15c1.942,1.664,3.47,2.497,5.688,4.854s2.913,3.052,4.021,4.993   c1.11,1.942,1.942,3.329,3.329,3.885c1.389,0.556,4.022-1.249,5.688-5.826c1.664-4.577,2.22-5.966,2.081-9.433   c-0.141-3.469-0.277-8.185-0.832-9.433c-0.557-1.249-2.914-0.973-4.717-3.47c-1.805-2.497-4.161-6.38-5.271-11.65   c-1.109-5.271-3.19-12.9-4.578-18.312c-1.386-5.41-3.604-9.849-3.604-9.849s0.555,2.081,1.524,5.688   c0.971,3.607,2.221,8.602,3.329,13.316c1.11,4.717,1.803,7.906,3.19,12.207c1.387,4.3,2.497,6.52,4.022,8.322   c1.525,1.804,2.496,2.357,3.884,3.605c1.388,1.249,1.664,2.081,1.941,4.855c0.278,2.773,0.693,4.3,0.139,7.629   c-0.554,3.329-1.524,6.104-2.497,7.907c-0.971,1.803-1.387,3.328-2.773,3.328s-0.692-0.276-2.635-2.773   c-1.942-2.496-2.637-3.19-4.578-5.271c-1.942-2.08-6.797-5.688-6.797-5.688L455.973,454.15z"
   id="path4111" />
	<path
   fill="#A7A9AC"
   d="M431.143,379.384c3.053-0.693,9.711-3.328,12.9-5.688c3.191-2.358,8.601-6.104,11.514-4.994   c2.913,1.109,7.629,2.773,8.322,8.738c0.694,5.966,0.14,11.652-1.109,14.844c-1.247,3.189-1.803,5.548-3.189,6.658   c-1.387,1.108-4.022,3.052-5.964,2.773c-1.942-0.276-5.688-3.189-7.907-3.606c-2.22-0.415-3.468-0.972-4.854-0.277   c-1.389,0.694-2.638,2.081-4.023,2.497c-1.388,0.417-6.104,0.694-6.104,0.694s3.745-0.141,5.688-1.665   c1.942-1.526,2.913-3.053,5.688-3.053c2.773,0,4.022,0.555,6.242,1.942c2.221,1.387,4.716,3.189,6.658,2.357   c1.941-0.832,4.854-0.972,6.38-8.185c1.526-7.213,2.637-10.542,1.665-13.732c-0.971-3.19-2.22-6.104-3.884-7.213   c-1.665-1.11-3.745-2.358-5.688-1.666c-1.94,0.694-5.408,1.942-7.768,3.746c-2.358,1.803-5.826,4.022-8.323,4.577   C434.889,378.688,431.143,379.384,431.143,379.384z"
   id="path4113" />
	<path
   fill="#A7A9AC"
   d="M462.492,391.729c2.497,1.941,4.854,4.301,5.965,6.937s4.3,7.629,5.132,9.71   c0.833,2.08,1.942,3.884,3.33,3.884c1.387,0,2.08-1.804,2.913-3.884c0.832-2.081,1.525-4.438,1.387-6.658s-0.692-5.826-0.555-7.49   c0.139-1.664,0.139-6.658,0.139-6.658s1.249,9.294,1.249,11.93c0,2.635,0.415,4.993-0.277,7.352   c-0.693,2.359-1.388,4.302-2.081,5.41c-0.693,1.109-1.525,2.357-3.468,1.248c-1.941-1.108-3.469-2.497-5.271-6.381   c-1.804-3.884-3.052-6.242-4.578-8.322c-1.525-2.08-4.438-4.994-4.438-4.994L462.492,391.729z"
   id="path4115" />
	<path
   fill="#A7A9AC"
   d="M480.803,387.567c-0.276-1.942,1.109-2.637-0.833-4.717c-1.94-2.08-3.605-2.08-5.409-6.52   s-6.936-12.9-9.154-17.756c-2.221-4.854-8.185-13.455-9.71-15.536c-1.525-2.08-3.329-3.884-3.329-3.884l-0.693,0.832   c0,0,5.825,6.381,7.906,9.987s5.826,10.958,8.185,15.398c2.358,4.438,4.438,7.768,5.825,11.096   c1.389,3.329,2.359,4.162,3.885,5.688s2.496,1.804,2.637,2.912c0.139,1.11,0.555,7.076,0.555,7.076L480.803,387.567z"
   id="path4117" />
	<path
   fill="#A7A9AC"
   d="M428.368,326.256c2.22-1.942,3.052-3.052,4.578-4.022c1.524-0.971,5.271-3.052,7.352-4.301   c2.081-1.248,3.885-4.022,6.658-3.606c2.774,0.417,6.104,0.971,7.491,5.41c1.387,4.439,1.803,11.514,1.108,14.149   c-0.692,2.635-2.773,6.241-4.993,7.212c-2.22,0.972-5.133,2.22-7.353,1.804s-4.3-0.693-5.688-0.277s-3.606,2.497-4.854,2.774   c-1.249,0.277-3.885-0.555-6.242,0.416c-2.357,0.972-4.717,3.052-4.717,3.052s5.41-4.161,7.629-4.3   c2.22-0.14,4.023-0.14,5.826-1.526c1.804-1.388,2.637-2.22,4.578-1.942c1.941,0.277,7.629,1.665,10.402-0.971   c2.774-2.636,4.994-4.855,4.855-9.987c-0.139-5.132-0.555-9.433-2.358-11.652c-1.803-2.22-2.635-2.635-4.438-2.913   c-1.804-0.278-3.885,0.277-5.41,1.525c-1.526,1.249-2.081,1.804-4.578,3.191c-2.496,1.387-3.605,1.803-4.993,2.913   C431.836,324.313,428.368,326.256,428.368,326.256z"
   id="path4119" />
	<path
   fill="#A7A9AC"
   d="M455.278,326.117c1.804,1.387,5.271,3.19,8.186,6.104c2.912,2.913,7.629,8.322,9.154,11.514   c1.525,3.189,4.578,6.796,5.549,9.155c0.971,2.357,2.497,4.854,3.606,4.717c1.109-0.14,2.357-1.526,2.496-4.717   c0.14-3.191,0.693-7.769,0.693-10.82c0-3.051-0.693-6.381-1.941-8.462c-1.248-2.08-4.301-4.577-6.104-6.935   c-1.804-2.359-6.104-12.901-8.323-16.508c-2.22-3.606-6.657-10.958-9.017-13.593c-2.357-2.636-6.104-6.797-6.104-6.797l0.277-1.525   c0,0,1.249,0.693,4.994,5.687s8.184,11.235,9.849,14.149c1.664,2.913,4.438,9.987,5.688,12.345   c1.248,2.358,4.854,6.381,6.381,8.045c1.525,1.665,4.021,5.548,4.717,8.461c0.692,2.913,0.555,7.49,0.277,9.85   c-0.277,2.357-0.277,6.519-0.694,8.045c-0.416,1.524-1.108,3.468-2.497,3.884c-1.387,0.416-3.468-0.832-5.826-4.855   c-2.356-4.021-5.271-9.153-7.629-12.761c-2.357-3.606-5.825-7.212-7.768-9.016c-1.942-1.804-5.826-3.884-5.826-3.884   L455.278,326.117z"
   id="path4121" />
	<path
   fill="#A7A9AC"
   d="M416.994,286.029c2.497-2.636,4.578-3.468,5.688-4.162c1.109-0.694,6.242-3.468,7.769-5.133   c1.525-1.665,4.438-3.19,5.965-3.745c1.525-0.555,2.22-2.22,3.468-2.774c1.249-0.555,5.826-1.387,8.045,0.555   c2.221,1.942,6.659,5.41,6.798,10.958c0.14,5.548-0.276,8.877-1.804,11.652c-1.524,2.774-4.161,4.716-6.797,5.132   c-2.636,0.417-5.826-0.832-7.63-1.11c-1.803-0.277-4.854,0.139-5.688,0.833c-0.832,0.693-3.189,2.358-5.133,2.913   c-1.941,0.555,2.081-2.081,4.023-3.19c1.94-1.11,3.329-2.081,5.825-1.665c2.496,0.417,7.073,1.943,8.878,1.388   c1.804-0.555,5.688-3.607,6.241-6.52c0.556-2.913,1.249-7.074,0.832-9.988c-0.416-2.913-1.803-5.271-3.605-7.213   s-3.329-2.774-5.409-3.19c-2.081-0.417-3.469-0.832-4.854,0.555c-1.389,1.387-3.745,2.774-5.271,3.745   c-1.525,0.972-4.577,4.439-6.242,5.271c-1.664,0.832-4.854,2.497-5.825,2.774C421.294,283.393,416.994,286.029,416.994,286.029z"
   id="path4123" />
	<path
   fill="#A7A9AC"
   d="M454.17,282.561c2.773,2.081,6.797,4.716,8.738,6.936c1.941,2.219,6.381,6.104,7.907,8.323   c1.524,2.22,3.329,4.716,4.716,5.964c1.388,1.249,3.189,3.052,3.329-2.08c0.139-5.132,0.276-8.739,0.555-12.068   c0.277-3.33,0.694-6.381-0.693-7.63c-1.387-1.248-3.329-1.665-5.133-3.468c-1.803-1.804-7.213-12.346-10.125-16.785   c-2.914-4.438-7.214-10.819-9.849-13.871c-2.637-3.052-8.323-8.323-8.323-8.323l-0.277-1.387c0,0,7.906,5.548,11.93,11.652   c4.022,6.104,9.154,13.872,11.375,18.31c2.219,4.439,4.578,8.323,6.52,9.987c1.942,1.665,4.439,1.665,4.994,3.191   c0.555,1.525,1.109,3.884,0.832,6.797c-0.277,2.913-0.277,9.433-0.416,12.345c-0.139,2.914-0.416,6.104-1.526,6.381   c-1.108,0.277-2.636,0.139-6.241-4.3c-3.606-4.439-5.55-7.352-8.602-10.265s-5.826-4.994-6.797-5.687   c-0.971-0.694-3.189-2.081-3.189-2.081L454.17,282.561z"
   id="path4125" />
	<path
   fill="#A7A9AC"
   d="M415.329,233.04c0.417-0.833,3.329-4.578,5.271-5.688c1.942-1.11,6.521-1.526,8.047-2.774   c1.524-1.249,6.104-5.688,8.461-5.132c2.357,0.555,5.688,3.329,6.936,6.104c1.249,2.774,2.081,9.017,1.942,10.958   c-0.14,1.941-0.556,5.271-2.637,7.352s-4.576,4.578-7.629,4.994c-3.052,0.417-5.688-0.277-7.353-0.555   c-1.664-0.277-3.606-0.139-4.577,0.417c-0.971,0.555-4.161,1.387-5.133,2.08c-0.972,0.694-5.271,3.746-5.271,3.746   s6.658-4.717,8.045-5.688c1.389-0.971,1.249-1.525,4.023-1.803c2.772-0.278,4.021,0.693,6.797,0.832   c2.774,0.139,6.381-0.555,7.906-2.219c1.525-1.665,4.578-4.716,4.854-8.185c0.277-3.468-0.276-7.768-1.388-10.265   c-1.109-2.497-2.636-5.41-4.438-5.965c-1.805-0.555-3.329-0.971-4.994,0.139c-1.664,1.11-3.329,3.19-5.41,4.023   c-2.08,0.832-4.716,1.387-6.52,2.219c-1.804,0.833-4.161,2.636-4.717,3.329C416.994,231.653,415.329,233.04,415.329,233.04z"
   id="path4127" />
	<path
   fill="#A7A9AC"
   d="M445.431,233.456c0,0,4.993,3.19,7.213,5.548c2.221,2.358,5.688,6.104,7.63,8.461   c1.941,2.358,4.577,4.716,5.688,4.855c1.11,0.138,2.913,0.138,3.052-2.081c0.14-2.219-0.555-7.353-0.555-9.433   c0-2.081-1.249-8.461-2.358-10.403c-1.108-1.942-2.912-5.271-3.744-6.242c-0.832-0.971-2.637-2.636-4.161-3.19   c-1.525-0.555-3.469-1.11-6.242-3.884c-2.774-2.774-9.018-11.513-11.93-14.148c-2.913-2.636-11.515-10.82-11.515-10.82   l-0.416,1.109c0,0,1.389,0.971,5.271,4.855c3.884,3.884,8.601,8.739,11.098,11.93c2.496,3.19,5.549,7.074,7.213,8.738   c1.665,1.665,6.104,3.052,7.629,4.162c1.525,1.11,4.162,4.439,5.549,7.491c1.388,3.052,2.221,4.994,2.221,8.323   s0.692,6.936,0.692,8.323c0,1.387,0.556,5.964-2.357,3.052c-2.913-2.914-6.937-7.491-9.571-10.127   c-2.636-2.635-5.548-4.438-6.797-5.548c-1.248-1.109-3.745-2.219-3.745-2.219L445.431,233.456z"
   id="path4129" />
	<path
   fill="#A7A9AC"
   d="M398.268,187.68c2.497-1.942,6.798-4.439,8.879-5.271c2.079-0.833,4.576-3.19,7.073-4.994   c2.497-1.803,5.965-4.161,9.434-1.387c3.468,2.774,5.549,7.213,5.825,9.987c0.277,2.774-0.555,7.074-1.941,8.739   s-3.745,3.745-5.964,4.3c-2.22,0.555-3.329,0.277-5.549,0c-2.221-0.277-3.885-0.139-5.271,0.555   c-1.387,0.693-4.993,3.606-4.993,3.606s2.357-4.3,5.271-4.855c2.914-0.555,8.878,0.971,11.374-0.693   c2.498-1.665,5.133-4.439,5.271-8.462c0.14-4.023,0.277-6.52-1.524-8.739c-1.804-2.219-3.053-4.578-5.134-4.578   c-2.08,0-3.605-0.138-4.992,1.387c-1.389,1.526-3.606,3.329-5.688,4.3c-2.082,0.971-4.3,2.081-6.242,2.913   C402.153,185.32,398.268,187.68,398.268,187.68z"
   id="path4131" />
	<path
   fill="#A7A9AC"
   d="M428.646,183.796c2.495,0.555,5.824,1.526,8.6,2.774c2.773,1.249,4.994,2.636,6.659,3.606   c1.664,0.971,2.635,1.942,3.744,1.11s0.833-3.468-0.556-5.964c-1.387-2.497-4.577-9.571-6.104-11.791   c-1.525-2.219-3.884-5.271-5.964-5.548c-2.081-0.277-5.967-2.081-10.404-3.606c-4.438-1.525-9.294-3.33-11.651-5.41   c-2.357-2.081-5.271-5.41-5.271-5.41l0.692-1.387c0,0,3.053,4.439,5.55,5.964c2.497,1.526,5.688,3.33,9.849,4.855   c4.161,1.525,5.548,2.913,8.322,3.468c2.773,0.555,5.41,1.249,7.214,3.329c1.804,2.081,4.716,7.074,5.965,9.433   c1.248,2.358,3.606,7.074,3.884,9.155s0.556,4.3-1.249,4.3c-1.803,0-4.438-0.832-5.964-1.942c-1.525-1.11-5.549-3.19-7.213-3.884   c-1.665-0.693-5.826-1.665-5.826-1.665L428.646,183.796z"
   id="path4133" />
	<path
   fill="#A7A9AC"
   d="M391.471,633.369c0,0-6.104,10.543-11.65,15.259c-5.549,4.716-16.646,13.316-24.138,18.312   c-7.49,4.992-20.529,12.205-28.575,15.259c-8.044,3.051-21.916,7.489-23.303,8.321c-1.389,0.832-3.604,3.862-0.557,4.439   c5.133,0.971,20.669-0.277,30.102-2.914c7.452-2.081,31.488-10.958,40.645-17.062c9.156-6.104,23.977-20.506,28.297-27.466   c4.994-8.046,10.82-28.853,11.098-32.736c0.277-3.885,0.832-7.49,0.832-7.49l-1.108,0.555c0,0-1.11,9.987-2.774,15.675   c-1.665,5.688-4.854,16.924-8.046,21.641c-3.19,4.716-11.235,14.563-17.339,19.697c-6.104,5.133-16.091,11.514-19.836,13.454   c-3.746,1.942-13.456,5.688-17.062,7.353c-3.606,1.665-13.316,4.301-17.34,5.688c-4.013,1.385-16.923,2.913-20.392,2.913   c-3.468,0-7.353,0.14-7.353-0.555s-1.525-1.665,3.607-3.052c5.132-1.388,19.696-6.521,27.742-10.403   c8.045-3.884,21.223-10.82,29.822-17.479c8.601-6.659,15.536-11.514,19.838-16.229c4.3-4.716,9.153-12.345,9.153-12.345   L391.471,633.369z"
   id="path4135" />
	<path
   fill="#A7A9AC"
   d="M374.062,596.68c1.763-0.604,3.519-0.111,5.084,0.654c2.562,1.256,4.815,2.845,7.694,3.417   c4.268,0.85,8.12,0.008,12.362-0.856c2.368-0.481,5.522-2.336,6.912,0.32c1.075,2.057,0.357,4.46,0.93,6.702   c1.701,6.673,0.22,13.177-2.113,19.284c-1.287,3.367-3.249,6.396-6.478,8.312c-1.44,0.856-3.078,1.391-4.671,0.804   c-3.438-1.267-5.123-4.662-6.881-7.81c-1.139-2.037-3.615-2.354-5.771-2.633c-1.091-0.141-2.119,0.178-3.168,0.448   c-1.887,0.483-3.486,1.518-5.289,2.151c2.007-0.984,4.03-1.973,6.256-2.247c1.979-0.244,3.915-0.431,5.938-0.046   c0.906,0.172,1.773,0.445,2.488,1.068c1.894,1.651,2.426,4.134,4.334,5.787c0.241,0.21,0.501-0.127,0.629-0.207   c0.813-0.51,1.154-1.483,1.785-2.216c0.529-0.618,1.161-1.131,1.681-1.77c1.268-1.564,2.547-3.06,3.257-4.859   c1.367-3.473,1.616-7.221,2.068-10.909c0.384,4.939,0.72,10.128-2.606,14.448c-1.718,2.232-4.206,4.056-4.376,6.92   c-0.009,0.139,0.081,0.565,0.335,0.655c1.494,0.529,2.984-0.106,4.121-1.111c2.539-2.241,4.711-4.675,5.832-7.882   c1.12-3.197,1.713-6.494,1.896-9.845c0.187-3.384-0.577-6.732-0.437-10.12c0.023-0.549,0.336-1.085,0.197-1.658   c-0.297-1.225-0.062-2.807-1.146-3.345c-1.409-0.7-3.045-0.246-4.64,0.071c-2.892,0.573-5.484,1.323-8.343,1.681   c-1.621,0.204-3.202,0.405-4.837,0.135c-1.472-0.244-2.848-0.671-4.125-1.405c-1.823-1.05-3.499-2.069-5.345-3.061   C376.534,596.965,375.306,596.778,374.062,596.68z"
   id="path4137" />
	<path
   fill="#A7A9AC"
   d="M422.82,512.965c0,0-5.826,38.008-8.323,45.776c-2.497,7.768-10.265,28.575-15.813,36.064   c-5.548,7.49-19.975,20.809-26.354,26.355c0,0-19.976,13.872-26.634,17.479s-30.794,13.595-38.84,16.646   c-8.045,3.052-26.355,8.322-33.291,10.265c-6.937,1.943-17.479,4.439-19.976,6.381c-2.497,1.942-6.104,4.439,0.832,4.994   c6.937,0.556,31.351-0.276,43.558-2.773c12.206-2.497,36.343-10.266,49.937-16.924c13.595-6.658,31.488-15.119,48.827-33.015   c17.34-17.894,24.137-26.91,30.518-42.724c6.381-15.814,9.71-29.407,10.266-39.95c0.556-10.542,0-21.084,0-21.084   s-0.832,25.246-2.22,31.487c-1.388,6.242-7.49,25.523-10.958,32.46c-3.469,6.936-6.104,13.039-9.85,17.894   c-3.745,4.855-12.9,15.259-16.229,18.449c-3.329,3.189-15.26,14.288-20.113,17.479c-4.855,3.19-21.225,12.899-26.495,15.675   c-5.271,2.773-26.771,12.068-37.591,14.98c-10.82,2.913-23.859,5.41-32.737,6.243c-8.878,0.832-14.703,0.555-18.726,0.415   c-4.023-0.138-15.397,0.556-5.412-3.052c9.988-3.606,20.392-6.104,30.933-9.155c10.543-3.052,25.108-8.6,35.512-13.039   c10.403-4.438,26.218-11.374,33.984-17.2c7.77-5.826,26.217-19.559,33.014-26.771c6.799-7.213,13.039-13.871,16.509-22.611   c3.468-8.738,10.402-26.633,11.79-34.539c1.388-7.907,3.468-21.917,4.161-27.188c0.693-5.271,1.388-8.739,1.388-8.739   L422.82,512.965z"
   id="path4139" />
	<path
   fill="#A7A9AC"
   d="M412.14,490.077c3.189,0.14,14.427-3.19,17.755-3.745c3.329-0.555,5.966-1.387,7.353-1.664   c1.388-0.277,4.717-1.526,6.797,0.971c2.081,2.496,5.41,5.965,4.578,13.455c-0.832,7.491-1.526,12.347-4.855,14.288   s-6.241,3.606-8.461,3.329s-5.133-0.694-7.769-2.081c-2.635-1.388-5.549-1.388-8.602-1.388c-3.052,0-4.854-0.277-4.854-0.277   s2.081-0.276,5.133-0.276s4.993-0.277,8.601,1.108c3.605,1.389,5.965,2.774,9.154,1.942c3.19-0.832,6.521-2.357,7.77-4.994   c1.248-2.635,3.052-6.796,2.912-11.235c-0.139-4.438-0.277-7.629-1.804-9.849c-1.525-2.219-2.357-4.161-4.022-4.438   c-1.664-0.276-3.606,0.416-9.293,1.804c-5.688,1.388-5.965,2.081-10.82,2.636C416.855,490.217,412.14,490.077,412.14,490.077z"
   id="path4141" />
	<path
   fill="#A7A9AC"
   d="M217.8,0.277c0,0,1.665,1.664,2.358,3.745c0.694,2.081,1.804,4.994,2.219,6.242   c0.417,1.248,0.972,4.438,0.833,6.52c-0.139,2.081-0.416,4.578,0.555,6.104c0.972,1.526,3.191,3.052,4.301,4.716   c1.109,1.665,2.497,4.023,2.774,4.854c0.278,0.833,0.971,1.249,0.278,2.636c-0.694,1.387-1.942,4.577-1.804,7.352   c0.139,2.774,0.694,5.549,0.555,8.461c-0.138,2.913,0.277,6.104,1.387,7.629c1.11,1.525,3.329,5.133,4.716,5.271   c1.387,0.138,6.936-0.417,8.878-2.081s6.381-4.161,6.658-5.132c0.277-0.971,1.665-3.19,2.635-4.438   c0.971-1.249,3.191-3.468,3.884-4.855c0.693-1.387,0.832-3.606,1.248-4.994c0.416-1.387-0.14-5.549-0.14-5.549   s-0.555,2.913-0.832,4.855c-0.276,1.942-0.139,2.913-1.11,4.578c-0.971,1.665-2.635,3.052-3.745,4.439   c-1.109,1.387-1.665,2.774-2.774,4.578c-1.11,1.803-2.358,2.774-4.3,3.884c-1.942,1.109-4.023,2.219-5.271,2.913   c-1.249,0.694-3.052,1.665-4.716,0.555c-1.664-1.11-3.606-2.497-4.3-4.994c-0.693-2.497-1.11-4.994-1.249-7.907   c-0.139-2.913-0.971-7.074-0.555-9.016s1.525-4.578,1.942-5.826c0.416-1.249,0.416-2.22-0.417-3.607   c-0.832-1.387-2.08-2.913-1.942-3.745c0.139-0.833,1.11-1.942,1.942-2.219c0.833-0.278,1.11-0.417,1.665,0.139   c0.555,0.555,2.359,0.971,2.359,0.971s-1.11-0.832-2.359-1.942c-1.248-1.11-2.357-2.219-2.357-2.219s0.832,1.109,0.555,1.803   c-0.277,0.693-0.694,1.526-1.387,1.803c-0.694,0.277-1.11,1.109-2.219-0.277c-1.11-1.387-3.468-1.804-3.607-6.659   c-0.139-4.855-0.832-6.658-0.277-7.352c0.555-0.693,2.497-1.942,2.497-1.942s-0.972,0.555-1.942,0.417   c-0.972-0.139-2.082-0.833-2.082-1.526s-0.416-3.19-1.248-4.577c-0.832-1.387-1.942-3.606-1.942-3.606L217.8,0.277L217.8,0.277z"
   id="path4143" />
	<path
   fill="#A7A9AC"
   d="M231.949,32.458c0,0,1.803-1.525,3.19-2.635c1.387-1.109,2.913-2.081,4.578-3.329s3.468-3.606,4.022-5.271   c0.554-1.665,2.636-4.023,4.439-4.855c1.804-0.833,4.439-2.358,5.549-3.468c1.109-1.11,2.774-4.162,3.746-5.41   c0.971-1.249,1.664-3.329,4.161-2.913s4.578,1.526,5.134,4.439c0.555,2.913,0.832,5.41,0.139,6.797s-1.805,2.497-1.525,4.023   c0.277,1.526,0.555,4.3,0.415,6.104c-0.138,1.803,0.14,4.578-0.971,6.797c-1.109,2.219-2.774,4.994-3.606,5.965   c-0.832,0.971-1.941,3.606-1.941,3.606l-0.139-3.329c0,0,2.773-2.774,3.605-4.855c0.833-2.08,2.22-4.022,2.22-6.242   c0-2.22-0.139-5.271-0.139-5.271l-1.388,1.109c0,0,0-3.052,0.693-4.716s1.664-2.358,1.805-4.855   c0.137-2.497,0.555-3.606-0.418-5.41c-0.971-1.803-1.803-3.052-3.468-2.774c-1.664,0.277-2.772,0.555-4.022,2.774   c-1.248,2.219-1.386,3.605-3.33,5.132c-1.942,1.526-4.854,2.636-6.519,4.023c-1.665,1.387-2.635,2.635-3.884,4.578   c-1.248,1.942-2.357,3.468-4.161,5.132c-1.803,1.665-4.032,2.782-5.271,3.745c-2.185,1.699-2.497,2.774-2.497,2.774L231.949,32.458   z"
   id="path4145" />
	<path
   fill="#A7A9AC"
   d="M241.382,44.388c0.24,4.208,3.93,8.913,8.322,6.658c-0.221,0.871-1.74,0.317-1.514,1.064   c0.21,0.694,1.231,1.223,2.045,1.046c0.35-0.076,0.594-0.598,1.133-0.446c-2.479,1.782-5.038-0.36-6.95-1.537   c-4.03-2.479-5.062-8.659-2.482-12.889C241.388,40.287,241.264,42.319,241.382,44.388z"
   id="path4147" />
	<path
   fill="#A7A9AC"
   d="M265.732,49.864c-3.828,3.312-7.938,5.761-12.699,7.286c5.643-3.772,12.451-6.54,16.091-12.762   c-0.806-0.467-1.021-1.719-2.22-1.665c1.152-0.176,2.277,0.019,2.693,1.14c0.243,0.656,0.215,1.473,0.016,2.171   C269.061,47.979,267.143,48.646,265.732,49.864z"
   id="path4149" />
	<path
   fill="#A7A9AC"
   d="M264.686,41.059c-0.289-0.347-1.265,0.68-1.108-0.555C263.947,40.691,264.314,40.873,264.686,41.059z"
   id="path4151" />
	<path
   fill="#A7A9AC"
   d="M266.907,54.933c1.174-1.024,2.608-1.94,3.887-1.964c2.093-0.04,4.351,0.729,4.435,3.627   c-0.69-1.834-2.549-3.184-3.778-2.889c-4.769,1.144-7.517,5.683-11.815,8.344c-3.899,2.414-7.87,3.437-12.149,4.533   c3.337-1.906,7.088-2.67,10.468-4.572C261.339,60.107,263.958,57.505,266.907,54.933z"
   id="path4153" />
	<path
   fill="#A7A9AC"
   d="M273.536,65.426c1.798-1.042,2.448-3.059,3.911-4.392c-0.729,3.249-4.051,6.292-7.213,6.658   C271.4,67.037,272.34,66.119,273.536,65.426z"
   id="path4155" />
	<path
   fill="#A7A9AC"
   d="M274.167,73.307c1.228-0.906,2.115-2.03,3.354-2.705c1.037-0.565,0.133,0.685,0.479,0.974   c-5.87,5.147-12.813,8.987-20.53,10.542C263.295,79.725,268.805,77.273,274.167,73.307z"
   id="path4157" />
	<path
   fill="#A7A9AC"
   d="M257.875,87.177c0.5,1.183,2.585,1.494,1.816,3.265c-1.82-1.482-2.29-3.969-4.023-5.377   c-2.219-1.802-0.038-4.149-1.525-5.72c1.248,0.933,0.097,2.294,0.623,3.294C255.637,84.292,257.175,85.521,257.875,87.177z"
   id="path4159" />
	<path
   fill="#A7A9AC"
   d="M285.691,87.882c1.56-1.512,3.082-3.383,5.125-3.872c2.174-0.52,5.127,1.28,4.94,4.212   c-1.188-1.401-3.397-3.167-4.409-2.643c-3.359,1.741-12.347,10.459-21.113,12.075C275.848,94.83,281.123,92.314,285.691,87.882z"
   id="path4161" />
	<path
   fill="#A7A9AC"
   d="M291.939,72.09c0.942,1.539,1.707,3.047,2.709,4.479c-2.916-1.586-3.573-4.801-5.262-7.4   c-0.631-0.969-2.375-2.018-1.397-3.697C288.885,67.927,290.555,69.825,291.939,72.09z"
   id="path4163" />
	<path
   fill="#A7A9AC"
   d="M276.48,49.319c1.03,2.338,3.256,4.029,3.74,6.722c-5.207-6.561-9.168-14.569-11.098-22.75   C270.744,39.009,274.09,43.89,276.48,49.319z"
   id="path4165" />
	<path
   fill="#A7A9AC"
   d="M241.243,62.837c0,0,0.972,0.555,1.942,1.526c0.971,0.971,1.249,1.665,1.249,2.913   c0,1.249,0,1.665,0.833,2.636c0.832,0.971,2.773,2.635,2.773,2.635s2.358,2.913,2.914,3.329c0.555,0.416,0.832-0.278,0.416-0.971   c-0.416-0.693-2.219-2.636-3.467-3.884c-1.248-1.249-2.358-1.665-2.497-2.774c-0.138-1.109,0.555-2.081-0.138-3.052   c-0.694-0.971-2.774-2.913-2.774-2.913L241.243,62.837z"
   id="path4167" />
	<path
   fill="#A7A9AC"
   d="M284.66,69.08c1.966,1.31,2.22,2.081,2.636,3.884c0.416,1.803,0.692,2.497,0,3.884   c-0.692,1.387-2.636,3.052-3.606,3.884s-2.08,1.803-2.772,1.942c-0.694,0.139,0.972-1.526,1.94-2.497   c0.972-0.971,3.537-2.774,3.746-3.746c0.109-0.517,0.449-2.372,0.068-3.26c-0.416-0.971-1.248-2.219-2.289-2.982   C283.979,69.894,284.244,68.802,284.66,69.08z"
   id="path4169" />
	<path
   fill="#A7A9AC"
   d="M265.587,92.037L263.23,92.8c0,0,1.871,1.248,2.496,2.081s1.525,1.873,1.457,2.774   c-0.069,0.901-0.209,1.526,0.832,3.052s4.508,6.38,5.271,7.005c0.763,0.624,2.913,0.416,3.468,0.485   c0.555,0.069,5.757-2.15,7.838-3.467c2.08-1.318,6.241-3.468,8.254-5.618c2.012-2.15,3.883-4.37,4.092-5.757   c0.207-1.387,0-2.428,0-3.121c0-0.694-0.277-1.804-0.832,1.041c-0.556,2.843-1.457,4.23-3.19,5.895s-4.578,4.439-7.283,5.618   c-2.704,1.179-4.854,2.289-6.864,2.913c-2.013,0.625-3.191,1.526-4.51,0.694s-2.289-2.844-3.328-4.161   c-1.041-1.318-2.15-2.22-2.496-3.329c-0.349-1.11,0.067-2.081-0.279-2.913C267.807,95.158,265.587,92.037,265.587,92.037z"
   id="path4171" />
	<path
   fill="#A7A9AC"
   d="M277.031,107.85c0.484,0.971,1.109,2.219,0.971,3.19c-0.138,0.971-0.484,2.427,0,3.398   c0.486,0.971,1.873,2.982,2.289,3.884c0.416,0.901,1.387,2.844,1.941,3.259c0.556,0.417,3.676-0.416,5.966-1.387   c2.288-0.971,7.144-3.676,8.946-4.854c1.804-1.179,6.104-3.606,7.074-5.41c0.971-1.803,1.596-3.468,1.317-4.716   s-1.804-3.259-2.497-3.745c-0.693-0.485-2.08-1.457-2.635-1.665s-1.805-0.208-2.914,0.763c-1.109,0.971-5.062,4.439-6.729,5.479   c-1.664,1.04-5.479,3.121-6.796,3.676c-1.317,0.555-4.231,1.526-4.231,1.526s2.22-0.069,3.537-0.416   c1.318-0.347,3.746-1.11,5.826-2.358c2.08-1.249,4.508-3.121,5.965-4.3c1.457-1.179,2.914-2.636,3.537-2.982   c0.625-0.346,1.387-0.624,2.358,0s2.635,2.15,2.844,2.843c0.207,0.694,0.832,1.873,0.207,3.26   c-0.624,1.387-2.011,3.676-3.745,4.716c-1.732,1.04-5.548,3.814-7.074,4.578c-1.525,0.763-5.756,2.843-7.144,3.259   c-1.388,0.417-2.774,1.179-3.606,0c-0.832-1.179-0.971-2.011-1.664-3.19c-0.693-1.179-1.248-1.733-1.596-2.774   c-0.347-1.041,0.139-1.734,0-2.913c-0.139-1.179-1.039-3.607-1.039-3.607L277.031,107.85z"
   id="path4173" />
	<path
   fill="#A7A9AC"
   d="M328.217,57.705c0,0-11.929-2.22-16.923-1.387c-4.994,0.832-22.472,4.716-29.687,7.768   c-7.213,3.052-20.252,8.877-24.967,10.681c-4.716,1.804-13.871,5.132-16.507,5.688c-2.635,0.555-6.381,1.387-7.629,1.109   c-1.249-0.277-3.606-1.665-4.994-3.052c-1.387-1.387-2.081-2.913-4.023-3.19c-1.942-0.277-5.826,0.971-7.906,1.942   c-2.081,0.971-4.439,2.219-5.132,3.745c-0.694,1.526-1.11,3.884-1.249,5.826c-0.138,1.942-0.555,4.439-1.387,5.826   c-0.832,1.387-1.525,3.052-0.832,4.855c0.694,1.803,3.884,4.439,6.658,5.132c2.774,0.694,14.842,0.694,19.836-0.138   s20.114-6.381,26.356-9.017c6.241-2.636,17.894-8.045,24.968-10.265c7.075-2.22,16.508-4.855,19.42-5.133   c2.914-0.277,20.253-2.358,24.138-2.081c3.884,0.277-11.374-0.555-14.843-0.277c-3.469,0.277-13.455,1.665-17.756,2.774   c-4.301,1.11-15.259,4.578-22.609,7.629c-7.354,3.052-15.676,6.659-22.473,8.878c-6.797,2.219-15.397,5.132-20.668,5.826   c-5.271,0.693-8.74,0.833-12.901,0.277c-4.162-0.555-6.935-1.526-7.907-3.19c-0.97-1.665-0.832-3.606,0.278-6.242   c1.109-2.636,0.832-6.936,1.387-8.6c0.555-1.665,1.804-4.023,4.162-4.578c2.358-0.555,5.132-2.081,6.659-1.942   c1.525,0.139,3.19,0.417,3.884,1.249c0.693,0.832,3.468,3.606,3.884,3.884c0.416,0.278,1.248,0.694,1.248,0.694h-2.913   l-4.578,0.971c0,0,5.41,0.139,8.323-0.139c2.914-0.278,6.381-0.833,11.097-2.22c4.716-1.387,19.559-6.797,26.494-9.71   c6.938-2.913,11.375-5.132,18.449-7.352c7.074-2.22,15.812-4.994,19.281-5.549c3.468-0.555,3.606-0.832,7.214-0.971   c3.604-0.139,9.709,0.555,11.234,0.555C326.829,57.982,328.217,57.705,328.217,57.705z"
   id="path4175" />
	<path
   fill="#A7A9AC"
   d="M283.759,121.583c0.646,0.697,0.935,1.654,0.873,2.49c-0.1,1.368-0.526,2.725,0.029,4   c1.481,3.399,3.397,6.422,5.282,9.694c0.344,0.595,1.107,0.887,1.514,1.482c0.164,0.239,0.273,0.634,0.275,0.923   c0.004,1.116-0.455,2.211-0.026,3.313c1.247,3.207,1.879,6.735,4.362,9.207c0.431,0.429,1.076,0.809,1.481,1.282   c0.272,0.317,0.397,0.984,0.164,1.429c-0.167,0.32-0.135,0.704-0.276,0.97c-0.656,1.221-0.424,2.62-0.139,3.894   c0.434,1.938,1.174,3.657,2.034,5.409c0.034,0.069,0.288-0.038,0.377,0.158c1.085-1.048,0.638-2.632-0.306-3.703   c-0.754-0.855-1.291-2.04-1.133-3.221c0.162-1.197,0.697-2.273,0.971-3.491c0.066-0.295,0.23-0.675-0.088-0.96   c-0.449-0.403,0.035-0.985-0.193-1.559c-0.163-0.409-0.536-0.659-0.725-1.033c-0.368-0.728-1.604-0.549-1.973-1.005   c-1.88-2.338-2.281-5.355-3.244-8.182c-0.182-0.527-0.17-1.049-0.047-1.521c0.271-1.022,0.773-2.096,0.385-3.022   c-0.688-1.632-2.92-1.848-3.635-3.514c-0.062-0.144-0.396-0.388-0.517-0.708c-0.836-2.265-2.101-4.256-2.962-6.501   c-0.6-1.56,0.062-3.125-0.146-4.718c-0.064-0.505-0.451-0.877-0.627-1.356c-0.238-0.648-1.035-0.281-1.555,0.003   C283.857,121.375,283.828,121.658,283.759,121.583z"
   id="path4177" />
	<path
   fill="#A7A9AC"
   d="M299.711,165.694c-0.111,1.771,0.734,3.306,2.316,4.232c1.14,0.666,0.375,2.019,0.228,3.127   c-0.206,1.544-0.026,3.008,0.271,4.562c0.264,1.367,0.705,2.561,1.076,3.851c0.702,2.436,1.496,4.739,2.813,7.03   c0.657,1.145,0.313,2.542,0.508,3.831c0,0,1.734,12.276,3.676,16.715c1.942,4.439,6.382,13.594,9.988,15.952   c3.606,2.358,7.352,3.607,10.681,2.774c3.329-0.832,6.242-1.803,6.937-9.71c0.694-7.907,0.417-15.675-0.14-22.056   c-0.555-6.381-2.219-15.675-4.021-23.998c-1.803-8.323-4.717-17.062-7.491-26.633c-2.773-9.571-8.045-25.107-11.097-31.349   s-16.924-30.794-17.617-32.043s-1.109-1.803-1.109-1.803l-0.832,0.555c0,0,6.797,12.484,9.295,17.201   c2.496,4.716,5.408,9.155,8.046,14.981c2.635,5.826,6.38,15.536,8.045,20.391c1.664,4.855,6.797,20.946,8.185,26.911   c1.387,5.965,3.884,16.091,4.854,22.194c0.97,6.103,1.94,11.513,1.94,11.513s-1.387-2.636-2.496-4.716   c-1.109-2.081-5.41-5.132-5.41-5.132s2.497,2.081,3.606,3.745c1.11,1.665,3.329,6.52,4.3,10.126   c0.973,3.606,1.526,9.294,1.11,14.703c-0.416,5.41-0.971,7.629-2.497,10.126c-1.525,2.497-2.08,4.023-4.994,3.884   c-2.912-0.139-6.796-1.526-9.155-3.884c-2.356-2.358-5.132-5.826-7.488-11.929c-2.358-6.104-4.302-11.236-4.718-16.923   s-1.804-7.075-0.276-8.323c1.524-1.249,3.189-3.468,6.657-4.578c3.469-1.11,9.85-2.497,11.515-3.468   c1.664-0.971,2.356-3.052,2.219-4.577c-0.139-1.526-1.387-4.994-2.913-5.688c-1.524-0.693-4.994-0.416-6.936,0.694   c-1.942,1.11-3.885,2.358-6.381,3.19s-7.769,2.636-7.769,2.636s4.161-0.833,6.521-1.387c2.358-0.554,5.825-2.497,7.906-3.19   c2.08-0.694,4.716-1.804,6.241-0.833s2.22,3.468,1.942,5.271c-0.277,1.804-0.832,2.913-2.913,3.468   c-2.081,0.555-5.965,1.387-8.462,2.358c-2.497,0.971-6.521,3.052-7.353,3.745c-0.832,0.693-1.94,1.942-1.94,1.942   s-0.834-0.555-1.665-4.022c-0.832-3.468-2.081-6.52-1.388-8.601c0.692-2.081-0.277-4.022-0.277-4.022s5.271-3.19,8.323-3.884   c3.052-0.694,7.768-1.665,9.71-2.497c1.94-0.832,2.08-1.665,2.636-2.774c0.555-1.109-0.141-3.468-0.694-1.665   c-0.555,1.804-1.94,3.746-4.3,4.162c-2.357,0.416-6.658,1.249-8.738,2.219c-2.081,0.971-4.993,2.081-6.381,2.774   c-1.388,0.694-2.358,1.11-2.637-0.139s-1.248-3.19-1.248-3.19L299.711,165.694z"
   id="path4179" />
	<path
   fill="#A7A9AC"
   d="M298.811,157.024c-3.156,0.631,10.819-2.358,14.427-4.716c3.605-2.358,4.716-2.774,5.825-3.607   c1.108-0.832,3.052-0.971,3.468,0.833c0.416,1.804,0.139,4.578,0.139,4.578s-0.693-1.249-0.971-2.358   c-0.277-1.109-0.14-3.19-1.942-2.081c-1.803,1.11-6.519,4.023-9.71,5.132C306.855,155.915,299.503,156.886,298.811,157.024z"
   id="path4181" />
	<path
   fill="#A7A9AC"
   d="M294.371,141.211c3.329-0.832,9.154-3.746,12.345-5.965c3.191-2.219,4.439-3.468,5.41-4.022   c0.971-0.554,3.329-1.11,4.717,1.526c1.388,2.635,2.357,6.103,2.221,7.629c-0.141,1.525-2.221,3.884-5.688,5.687   c-3.467,1.803-8.738,4.578-10.682,5.271c-1.94,0.694-4.854,1.249-4.854,1.249l-0.832-1.11c0,0,6.937-1.387,11.652-4.022   c4.716-2.636,6.936-4.023,8.045-5.41c1.11-1.387,1.526-2.081,1.249-3.745c-0.278-1.665-1.249-4.022-1.941-4.994   c-0.693-0.971-1.665-2.081-3.606-0.832s-4.161,3.329-7.353,5.132c-3.189,1.803-4.576,2.774-6.797,3.329   C296.036,141.489,294.371,141.211,294.371,141.211z"
   id="path4183" />
	<path
   fill="#A7A9AC"
   d="M286.741,124.981c0.832-0.277,8.185-2.636,11.097-4.439c2.914-1.803,5.826-4.994,6.799-5.688   c0.971-0.693,3.052-1.803,4.438,0.278c1.388,2.081,3.189,5.271,3.468,6.658c0.278,1.387-0.693,3.884-2.357,5.271   c-1.665,1.387-7.63,5.549-10.542,6.659c-2.914,1.109-8.601,3.19-8.601,3.19l-0.833-0.693c0,0,6.52-1.942,9.986-3.884   c3.469-1.942,7.491-4.3,9.155-5.964c1.665-1.665,2.358-3.052,2.081-4.439c-0.276-1.387-1.665-3.606-2.497-4.716   c-0.832-1.11-1.388-2.774-3.468-1.11c-2.081,1.665-5.549,4.439-7.768,5.688c-2.221,1.248-4.578,1.803-6.521,2.497   C289.238,124.981,286.741,124.981,286.741,124.981z"
   id="path4185" />
	<path
   fill="#A7A9AC"
   d="M315.13,184.716c-0.681,0.631-0.975,1.771-2.171,1.715c0.94-4.755,6.309-5.004,9.986-4.994   C320.082,181.785,317.396,182.613,315.13,184.716z"
   id="path4187" />
	<path
   fill="#A7A9AC"
   d="M320.032,185.044c3.189-0.832,9.017,0.417,11.235,6.242c2.22,5.826,4.161,19.836,3.885,22.749   c-0.277,2.913-0.277,11.097-3.745,11.514c-2.922,0.35-9.155-1.249-11.098-4.994c-2.885-5.563-6.381-9.849-7.073-16.507   c-0.694-6.659-0.243-13.109,1.697-15.328c1.942-2.22,1.908-2.289,3.156-2.428s2.497,0.693,1.248,2.497   c-1.248,1.803-2.913,2.358-3.051,6.936c-0.141,4.578-0.972,9.294,0.277,13.178c1.247,3.883,3.883,8.877,5.408,10.958   c1.525,2.081,3.745,3.052,5.41,3.746c1.664,0.693,4.3,1.665,5.271-0.139c0.972-1.803,1.665-4.855,1.388-9.155   s-0.833-10.958-1.665-14.149s-2.497-7.629-4.161-9.433c-1.665-1.803-3.468-3.19-4.994-3.329c-1.524-0.139-3.259,0.589-4.335,1.734   c-0.606,0.647-3.362-0.555-2.67-1.526c0.694-0.971,1.596-2.011,2.705-2.289C320.032,185.044,320.032,185.044,320.032,185.044z"
   id="path4189" />
	<path
   fill="#4496D1"
   d="M298.532,197.668c2.635,0,6.241,1.803,7.352,4.438c1.11,2.635,3.884,10.542,3.884,13.039   s0.556,5.688-0.555,8.184c-1.109,2.497-2.357,5.271-3.605,5.41c-1.248,0.139-0.555-0.555,0.555-1.665   c1.109-1.11,2.081-3.329,2.497-5.133c0.416-1.803,0.139-6.658-0.555-8.877c-0.694-2.219-2.081-6.103-3.19-8.045   s-2.773-4.578-4.438-4.439c-1.666,0.139-4.578,0.694-4.994,3.607c-0.418,2.913-0.694,9.571-0.277,11.651   c0.416,2.081,1.248,6.242,2.497,7.769c1.248,1.525,3.052,3.052,4.161,3.606c1.109,0.554,1.941,0.971,2.912,0.693   c0.972-0.278,2.358-1.109,2.358-1.109s-1.388,2.497-3.19,2.081s-4.577-1.387-5.965-3.052s-4.022-4.994-4.854-9.71   c-0.832-4.716-0.692-11.375,0.14-13.178s2.08-3.884,2.912-4.439S298.115,197.668,298.532,197.668z"
   id="path4191" />
	<path
   fill="#F48480"
   d="M310.6,226.659c1.389-2.774,2.638-5.688,5.271-4.023c2.636,1.665,6.658,4.023,8.878,5.826   c2.22,1.803,3.329,3.745,4.717,6.797c1.387,3.051,3.052,10.265,2.219,13.733c-0.832,3.467-1.387,5.964-2.773,6.936   c-1.387,0.971-3.19,1.942-4.161,1.942c-0.972,0,0.139-1.526,1.803-2.359c1.665-0.832,3.606-2.635,3.746-6.242   c0.14-3.606,0-8.739-1.804-12.068c-1.803-3.329-3.19-6.936-6.104-8.323c-2.914-1.387-4.3-2.497-5.688-3.052   c-1.387-0.555-3.884,0-4.438,2.913c-0.554,2.913-1.524,8.045-0.971,10.958c0.555,2.914,0.555,2.914,0.555,2.914   s2.774,7.491,4.439,9.433c1.664,1.942,3.188,3.745,4.577,4.3c1.387,0.555,2.497,0.555,3.745,0.139   c1.248-0.417,3.052-1.11,3.052-1.11s-0.833,1.665-2.081,2.081c-1.248,0.417-2.496,1.387-4.578,0.417   c-2.08-0.972-5.964-3.884-7.906-7.353c-1.94-3.467-4.3-8.878-4.438-12.345c-0.14-3.468,0-6.381,0.692-8.601   C310.045,227.353,310.6,226.659,310.6,226.659z"
   id="path4193" />
	<path
   fill="#A7A9AC"
   d="M289.932,216.949c0,0,0.693,4.439,3.19,6.659c2.497,2.219,8.045,4.716,10.265,8.323   c2.221,3.607,2.774,5.826,3.606,9.987c0.833,4.161,3.605,11.375,7.214,14.288c3.605,2.913,6.796,5.409,6.796,5.409   s-3.883-1.387-6.796-3.884s-6.381-6.52-7.352-10.265c-0.973-3.745-1.526-7.629-2.498-10.403c-0.971-2.774-2.08-5.688-5.549-8.045   c-3.468-2.357-5.965-3.329-7.213-5.826C290.348,220.694,289.932,216.949,289.932,216.949z"
   id="path4195" />
	<path
   fill="#A7A9AC"
   d="M207.535,97.1c0,0-2.497,0.139-4.022,1.804c-1.526,1.665-3.884,8.184-6.242,10.681   s-10.82,13.733-13.872,16.923c-3.052,3.19-8.877,9.571-10.403,11.513s-1.942,3.884-2.497,4.994s-1.387,1.249-2.497,1.665   c-1.109,0.416-3.051,3.745-5.271,6.658c-2.219,2.913-14.148,21.085-17.339,28.021s-8.739,18.171-11.514,24.414   c-2.774,6.243-14.426,31.35-16.368,35.372c-1.942,4.023-10.126,22.333-13.039,30.656c-2.913,8.323-7.352,22.472-8.185,25.523   c-0.832,3.052-5.964,25.662-7.074,35.511c-1.11,9.85-3.19,38.979-3.746,45.359c-0.555,6.381-1.803,22.75-2.774,31.071   c-0.971,8.323-4.022,32.876-4.022,42.031s2.219,19.42,3.19,22.473c0.971,3.051,0.693,0.692-0.139-4.718   c-0.833-5.41-2.22-14.288-1.526-22.888c0.693-8.6,1.249-16.923,2.219-25.523c0.971-8.601,3.329-25.522,3.884-35.511   c0.555-9.988,2.497-32.043,3.19-40.366c0.693-8.323,2.358-24.691,4.993-34.54c2.636-9.849,8.878-32.736,13.178-43.278   c4.3-10.542,14.981-34.679,18.727-42.585c3.746-7.906,14.426-30.101,19.004-39.256c4.577-9.155,15.397-28.021,18.449-31.627   c3.052-3.606,4.022-5.826,5.132-5.826c1.11,0,3.19,0.278,3.19-0.832c0-1.11-0.139-2.22,0.555-3.606   c0.693-1.387,15.258-18.033,18.865-22.194c3.606-4.162,8.461-11.652,10.126-14.287c1.665-2.636,2.219-4.855,3.329-5.41   c1.109-0.555,2.913-1.526,2.913-1.526L207.535,97.1z"
   id="path4197" />
	<path
   fill="#839CB4"
   d="M299.087,232.762c0.277,1.665,0.556,2.774-2.497,4.994c-3.052,2.22-9.433,4.994-16.923,6.658   c-7.491,1.665-35.233,7.491-49.382,9.988c-14.149,2.497-46.053,10.82-56.873,13.316c-10.82,2.497-34.124,9.71-37.175,11.652   c-3.051,1.942,8.045-2.497,16.091-4.716c8.045-2.22,16.091-4.578,28.159-7.491c12.068-2.913,38.701-9.433,50.908-11.791   s23.998-4.578,32.598-6.104c8.601-1.526,17.2-3.884,21.36-5.271c4.162-1.387,6.104-1.387,8.739-1.387   c2.636,0,5.41,0.277,6.521,1.525c1.109,1.249,2.914,3.746,2.914,3.746s-1.25-4.023-2.774-4.994   c-1.526-0.971-5.133-1.387-6.381-1.387c-1.249,0,2.08-1.387,3.329-2.497c1.248-1.109,2.635-2.081,2.496-3.329   C300.059,234.427,299.087,232.762,299.087,232.762z"
   id="path4199" />
	<path
   fill="#839CB4"
   d="M299.919,246.079c0,0,0.833,1.942,0.276,3.884c-0.555,1.942-7.213,9.71-11.096,14.149   c-3.885,4.439-31.906,38.84-38.009,48.272c-6.103,9.433-28.02,37.454-34.956,47.996c-6.936,10.542-21.085,29.407-29.13,40.504   c-8.045,11.099-25.246,32.184-30.517,37.73c-5.271,5.549-14.149,13.315-14.149,13.315s19.143-16.923,25.246-24.136   c6.104-7.213,13.456-16.785,21.362-27.188c7.907-10.403,18.727-25.939,23.998-33.152s20.392-28.021,26.772-36.76   c6.381-8.738,17.617-24.136,22.333-30.378c4.718-6.242,14.981-19.698,20.808-26.356c5.826-6.659,12.9-15.675,15.259-18.727   c2.358-3.052,3.052-5.132,2.914-6.242C300.891,247.882,299.919,246.079,299.919,246.079z"
   id="path4201" />
	<path
   fill="#666666"
   d="M304.372,253.629c1.696-0.414,3.323,0.115,4.376,1.639c0.328,0.474-0.27,0.758-0.366,0.474   c-0.813-2.415-3.491-1.812-5.079-1.405c-2.011,0.515-2.861,3.047-5.048,3.672C299.791,255.877,301.786,254.261,304.372,253.629z"
   id="path4203" />
	<path
   fill="#DE7875"
   d="M285.216,111.803c13.871,3.884,39.129,12.407,52.156,29.408c16.368,21.362,24.137,48.272,26.354,59.37   c4.438,22.194,7.215,45.221,6.938,64.086c-0.278,18.866-2.22,51.602-3.607,76.293c-1.387,24.691-5.548,58.814-7.489,70.467   c-1.942,11.651,6.381-74.073,6.657-85.726c0.277-11.652,3.329-49.382,1.942-75.46c-1.388-26.078-3.606-42.724-10.266-62.976   c-6.634-20.175-9.987-27.465-17.479-37.73c-7.491-10.265-10.266-16.091-25.522-23.859   C302.844,119.537,285.216,111.803,285.216,111.803z"
   id="path4205" />
	<path
   fill="#808080"
   d="M355.405,404.213c-17.363-8.681-41.614-17.2-59.925-9.433c-18.312,7.769-32.939,20.548-12.763,33.292   c10.542,6.658,26.078,4.438,36.62,4.994c10.542,0.555,34.401,3.328,44.943,0.555c10.543-2.774,10.543-13.872,1.665-20.53   S358.734,405.878,355.405,404.213z"
   id="path4207" />
	<path
   fill="#A7A9AC"
   d="M429.339,426.963c0,0-2.356,3.468-4.854,4.161s-2.774,1.525-5.55,0.416   c-2.772-1.109-3.052-1.388-6.104-0.971c-3.052,0.416-11.651,0.692-16.507,0c-3.984-0.569-14.131-1.5-19.28-2.358   c-4.162-0.693-12.347-1.248-15.398-1.388c-3.052-0.139-6.104,0.276-6.797,1.388c-0.691,1.109-0.555,3.468-0.416,5.41   c0.14,1.942,2.358,9.709-0.275,14.703c-2.637,4.994-4.301,8.878-5.549,10.403c-1.249,1.525-1.805,3.468-1.249,4.577   c0.555,1.109,4.022,2.637,6.936,2.913c2.913,0.277,16.091,3.052,22.194,4.439c6.104,1.387,14.288,3.328,19.004,4.021   c4.717,0.693,8.878,2.081,11.514,2.221c2.636,0.139,5.688-0.14,6.797-1.388c1.109-1.249,1.525-4.994,3.606-6.381   c2.081-1.388,5.133-3.329,7.629-2.497c2.497,0.832,4.854,2.774,4.578,5.688c-0.278,2.914-0.14,5.549-3.33,7.63   c-3.189,2.081-7.073,5.688-11.513,6.242c-4.438,0.555-14.564-1.665-22.333-3.19c-7.769-1.526-12.067-1.941-18.312-3.884   c-6.241-1.942-12.484-3.884-16.923-4.439c-4.439-0.555-9.017-1.248-10.681-0.692c-1.665,0.555-2.358,1.249-2.637,4.994   c-0.277,3.744-0.832,9.017-2.219,13.178c-1.388,4.162-2.082,6.936-4.022,9.017c-1.942,2.081-3.885,4.3-4.301,5.548   c-0.417,1.249-0.555,2.913,2.497,3.745c3.053,0.833,16.784,5.549,22.056,7.214c5.271,1.664,15.12,5.41,19.836,6.521   c4.717,1.11,8.185,2.773,10.959,1.942c2.773-0.832,4.854-1.942,7.073-2.914c2.221-0.971,4.022-1.804,4.577-4.161   c0.557-2.357,0.694-3.745,3.191-4.854c2.497-1.108,4.161-2.497,6.241-0.693c2.082,1.804,4.854,4.301,3.606,8.046   c-1.248,3.746-3.329,9.57-6.797,11.098c-3.469,1.525-9.155,4.161-14.148,3.606c-4.993-0.556-10.266-2.774-15.536-4.439   c-5.271-1.664-12.484-3.329-20.113-5.687c-7.629-2.358-9.155-2.637-13.871-4.023c-4.717-1.387-6.242-2.22-8.462-2.22   s-2.913-0.556-3.468,1.941c-0.556,2.497,0.692,10.404-3.606,17.479s-6.52,10.958-8.601,12.898c-2.081,1.942-3.606,3.33-4.022,4.023   s-0.832,1.803,0.14,2.774c0.971,0.971,1.941,2.22,7.489,3.468c5.55,1.249,13.18,2.636,19.004,4.301   c5.826,1.664,11.515,3.189,15.397,5.271c3.883,2.081,7.213,4.438,8.878,5.688c1.664,1.248,3.329,1.248,6.521,1.109   c3.19-0.14,6.52-0.277,7.489-1.664c0.973-1.389,2.221-6.797,4.023-8.739s2.773-3.606,5.132-3.745s4.577-0.139,5.688,1.941   c1.109,2.081,2.081,8.601,1.525,10.682c-0.555,2.08-2.636,6.657-5.271,8.461c-2.637,1.804-5.55,3.885-8.739,3.885   c-3.19,0-6.521-1.249-7.907-1.941c-1.387-0.694-3.467,0.276-8.6-0.694c-5.134-0.971-18.589-4.577-24.138-6.658   c-5.548-2.08-14.426-6.103-18.727-8.045c-4.3-1.94-8.738-3.605-10.958-3.605s-3.745,0-4.3,3.052s-0.555,12.623-4.162,19.143   c-3.605,6.521-5.688,10.542-8.045,12.347c-2.358,1.803-4.161,2.773-4.023,4.161c0.141,1.388,0.277,2.22,2.637,4.021   c2.357,1.804,7.213,3.19,12.067,5.41c4.855,2.219,18.449,8.045,23.72,9.849c5.271,1.803,6.521,1.665,8.602,3.606   c2.081,1.941,3.746,2.913,6.52,3.189c2.774,0.277,8.462,0.417,11.236-0.555c2.773-0.971,3.329-2.913,4.854-4.577   c1.526-1.665,3.885-3.19,6.937-1.941c3.052,1.248,6.104,2.496,6.243,7.073c0.138,4.578-2.359,9.018-4.162,12.484   c-1.804,3.468-3.19,5.132-4.855,6.242c-1.664,1.108,5.688-3.884,7.354-8.185s2.636-6.658,2.356-9.987   c-0.276-3.329-1.248-7.353-4.438-8.602c-3.19-1.248-6.242-1.94-8.323-0.415c-2.08,1.525-2.219,3.884-5.687,5.549   c-3.47,1.664-4.994,1.804-8.046,1.804c-3.053,0-5.133-0.693-7.769-2.358c-2.636-1.664-3.605-2.219-9.294-4.438   c-5.688-2.22-14.287-5.41-19.697-7.491s-12.9-5.271-15.259-6.381s-3.745-2.22-3.606-3.468c0.14-1.248,1.664-2.22,3.746-4.577   c2.08-2.358,7.073-8.602,8.877-13.179c1.804-4.578,3.19-9.294,3.19-13.315c0-4.022-0.277-6.381,1.109-6.938   c1.388-0.555,1.525-0.971,3.746-0.276c2.219,0.693,6.38,2.357,12.345,4.854s17.201,7.213,23.165,8.877   c5.966,1.665,11.514,3.47,14.148,3.746c2.636,0.277,7.214,0.139,10.126,0.971c2.913,0.832,5.688,3.053,8.602,2.358   s8.461-2.22,10.542-5.133c2.08-2.913,2.913-5.688,4.161-6.381c1.249-0.693,2.357-0.416,2.773-0.277s-1.664-0.416-1.94-1.942   c-0.277-1.524,0.276-5.271-0.694-8.184s-2.08-6.104-5.271-6.104c-3.189,0-5.271,0.416-7.353,3.606   c-2.08,3.19-3.052,6.381-4.438,8.046c-1.388,1.664-3.469,2.081-6.242,2.358c-2.774,0.275-3.329,0.971-5.41-0.277   c-2.08-1.249-4.161-4.301-10.126-6.381c-5.965-2.081-16.646-4.994-22.888-6.381c-6.242-1.388-12.484-3.607-14.844-4.301   c-2.356-0.693-5.687-1.248-3.328-3.19c2.357-1.941,5.409-5.133,8.462-9.433c3.052-4.302,6.797-8.602,7.213-14.428   c0.416-5.824-0.693-9.154-0.277-10.125c0.416-0.972,1.248-1.249,3.607-0.833c2.356,0.416,12.066,3.606,18.171,5.41   c6.104,1.805,17.479,4.438,22.749,6.381c5.271,1.941,9.433,4.578,14.147,4.717c4.717,0.14,13.733-1.248,16.785-4.301   c3.052-3.052,5.965-6.657,6.937-10.542c0.971-3.884,1.109-6.798-0.556-8.738c-1.664-1.942-3.329-3.19-6.242-3.19   c-2.912,0-5.965,1.525-6.936,3.19c-0.971,1.664-0.833,3.052-1.804,4.577c-0.972,1.525-2.774,2.22-4.993,3.189   c-2.22,0.972-4.717,2.774-11.236,1.249c-6.52-1.526-17.617-5.688-25.246-7.769s-16.923-5.41-19.004-5.966   c-2.081-0.555-4.577-0.276-4.021-1.803c0.555-1.525,3.052-3.468,4.854-5.965s5.964-9.155,6.104-14.148   c0.138-4.993-0.141-8.185,0-9.85c0.138-1.664,0.415-3.329,3.605-3.052c3.19,0.276,12.206,2.081,17.339,3.329   c5.132,1.249,13.179,3.746,18.588,4.717s10.682,1.804,15.397,2.636s9.293,2.357,12.207,1.942c2.912-0.417,7.352-1.389,10.403-3.607   s7.629-4.993,7.768-9.571c0.139-4.576-0.832-6.797-2.497-7.905c-1.664-1.11-5.964-1.804-7.768-0.832   c-1.804,0.971-3.745,1.94-5.132,4.021c-1.389,2.081-1.389,3.329-3.053,4.438c-1.665,1.108-3.469,1.387-8.185,0.692   c-4.717-0.692-20.529-4.021-26.772-5.132c-6.24-1.108-18.447-3.468-22.055-4.161s-5.549-1.249-6.104-1.941   c-0.556-0.693-1.388-1.804,0.832-4.993c2.221-3.191,7.214-8.463,7.49-13.595c0.277-5.134-0.139-9.85-0.555-11.931   c-0.416-2.08-0.694-3.605,0.555-4.438c1.248-0.832,5.688-0.832,8.602-0.555c2.913,0.276,11.513,1.248,16.091,1.804   c4.577,0.555,13.315,2.08,18.172,2.219c4.854,0.139,11.79-0.416,13.871-0.277c2.081,0.14,2.913,0.693,4.717,0.972   c1.803,0.276,4.993,0.276,6.521-0.693c1.524-0.971,5.132-4.577,6.24-6.52C432.669,423.494,429.339,426.963,429.339,426.963z"
   id="path4209" />
	<path
   fill="#A7A9AC"
   d="M431.004,372.446c-3.605,2.082-5.826,4.718-12.206,4.994c-6.381,0.277-31.905,0.14-38.562-0.139   c-6.658-0.277-15.536-0.693-17.479,0.139c-1.941,0.832-4.021,2.221-3.606,4.718c0.417,2.495,2.637,9.293,2.22,13.038   c-0.416,3.746-0.832,9.154-2.635,11.791c-1.805,2.636-3.053,5.133-2.497,6.381c0.555,1.248,3.052,3.052,4.438,3.745   c1.389,0.693,8.739,2.22,13.455,2.357c4.717,0.14,18.312,0.416,22.333,0.557c4.023,0.138,9.155,2.219,11.375,2.635   s7.49-0.555,9.571-1.525c2.081-0.972,3.329-1.388,4.577-4.022c1.249-2.636,2.081-6.937,4.438-8.602   c2.357-1.664,6.104-3.605,7.769-0.415c1.665,3.189,1.248,8.185-0.416,11.651c-1.665,3.468-4.718,8.185-6.242,9.294   c-1.525,1.109,1.388,0.139,2.636-1.109s4.993-7.214,5.41-10.126c0.416-2.913,1.387-8.185-0.277-10.265   c-1.665-2.082-3.469-3.746-5.966-2.774c-2.496,0.972-5.409,3.189-6.796,6.382c-1.388,3.188-0.416,6.24-4.162,7.768   c-3.745,1.525-5.549,4.022-9.293,2.497c-3.746-1.526-7.769-2.497-15.121-2.913c-7.352-0.416-12.482-0.139-18.032-0.139   c-5.549,0-12.346-1.388-14.702-2.358c-2.359-0.971-4.439-2.08-4.162-3.329c0.276-1.248,2.497-3.745,3.605-6.936   c1.11-3.19,3.052-9.849,2.358-13.316c-0.693-3.469-2.358-9.294-1.803-11.098c0.555-1.804,1.803-3.052,3.605-3.19   s23.72,0.139,29.823,0.139c6.103,0,14.287,0,19.004-0.139c4.716-0.139,9.433-0.693,11.791-1.525   c2.356-0.832,4.716-2.773,4.716-2.773l-7.629,3.189"
   id="path4211" />
	<path
   fill="#666666"
   d="M109.048,434.176c0.277-8.601,0.555-17.756,13.594-31.903c13.039-14.149,28.853-27.188,50.769-38.562   c21.917-11.375,41.06-19.42,66.306-21.917c25.246-2.497,50.215-0.832,76.571,6.104c26.354,6.936,50.769,21.639,71.575,46.607   c20.808,24.969,29.963,46.886,36.344,79.622s2.22,43.834-0.277,56.318c-2.497,12.483,7.213-21.362-1.664-56.041   c-8.878-34.68-2.773-18.588-11.651-39.117s-19.144-34.956-34.124-49.104c-14.98-14.149-28.298-25.246-48.272-32.459   c-19.975-7.215-42.724-11.375-63.809-11.375c-21.084,0-39.117,1.665-59.37,9.155c-20.253,7.49-38.84,16.368-51.047,25.523   c-12.207,9.154-29.685,23.857-34.401,30.518c-4.717,6.658-7.491,12.206-8.601,16.368   C109.88,428.072,109.048,434.176,109.048,434.176z"
   id="path4213" />
	<path
   fill="#666666"
   d="M283.62,370.229c-0.901,1.179-2.497,4.299-0.14,4.229c2.358-0.069,10.127-0.763,20.808,0.485   c10.682,1.248,30.587,3.744,49.729,15.951c19.143,12.207,38.562,28.299,49.659,49.383c11.099,21.085,15.814,43.278,17.756,56.874   c1.942,13.593-1.387,32.459-1.387,32.459s4.438-23.858-3.329-47.719c-7.769-23.858-5.549-19.42-10.543-30.518   c-4.993-11.098-14.147-27.742-27.742-39.117c-13.594-11.375-32.182-26.077-52.156-30.239c-19.976-4.162-33.292-6.937-42.725-4.994   c-9.433,1.941-11.375,3.053-11.375,3.053L283.62,370.229z"
   id="path4215" />
	<path
   fill="#DE7875"
   d="M259.762,95.227c-0.832,4.162-3.399,12.415-6.729,17.686c-3.329,5.271-6.935,9.433-10.542,12.207   c-3.607,2.774-13.594,13.039-18.033,21.917s-8.323,22.195-9.71,28.021c-1.387,5.826-0.555,8.6-3.884,12.484   c-3.329,3.884-22.749,18.311-30.517,28.02c-7.768,9.71-20.807,26.356-25.246,36.066s-8.878,21.917-13.317,31.35   s-18.587,38.562-21.639,47.717c-3.052,9.155-9.155,34.957-6.936,44.666c2.22,9.711,6.936,24.691,21.362,30.796   c14.426,6.104,37.175,8.878,58.26,6.104c21.085-2.773,54.931-15.536,71.299-25.801c16.244-10.188,15.396-12.647,20.252-16.646   c4.718-3.883,13.595-11.375,21.917-18.864c8.323-7.491,12.763-18.033,14.148-19.976c1.388-1.941,1.388-1.941,1.941-2.497   c0.556-0.555,0.277,5.271-0.555,11.929c-0.833,6.659-3.606,27.188-4.162,31.35c-0.554,4.161-7.767,42.726-11.096,61.035   c-3.33,18.31-8.878,48.272-8.878,48.272s9.71-44.111,13.871-68.804c4.161-24.691,11.374-62.699,13.039-76.848   c1.664-14.149,1.108-16.369,3.052-20.808c1.94-4.439,4.993-11.93,5.271-23.026c0.277-11.097-1.664-19.42-1.94-22.472   c-0.277-3.052,0-6.104,1.664-9.433c1.665-3.329,4.438-12.484,4.717-17.755s-0.555-13.039-0.555-13.039s-0.557,8.877-1.11,14.148   c-0.555,5.271-3.329,13.317-4.438,15.814s-1.388,3.329-2.773,2.774c-1.388-0.555-3.052-1.109-3.052-1.109s0.276-0.555,1.664,3.606   c1.388,4.162,3.329,10.265,3.329,18.588c0,8.323-0.277,14.981-3.329,24.136c-3.053,9.155-3.885,15.259-8.322,22.195   c-4.438,6.936-7.213,13.316-13.039,18.865s-12.207,11.375-14.427,12.762c-2.219,1.387-4.438,2.496-4.438,2.496   s1.942-5.271,3.329-9.709c1.389-4.439-3.329,7.768-6.104,11.65c-2.775,3.883-7.49,9.71-16.368,14.981   c-9.291,5.516-25.189,15.7-38.84,20.252c-14.149,4.717-25.801,9.155-36.066,9.986c-10.265,0.834-25.523,1.389-33.568,0.277   c-8.046-1.108-19.42-2.496-26.911-8.045c-7.49-5.549-12.761-10.265-15.536-19.696c-2.774-9.435-3.052-23.582,0-36.065   c3.052-12.485,11.097-33.015,19.42-48.828c8.323-15.813,14.149-31.072,17.478-39.95c3.329-8.878,8.6-16.923,14.148-23.859   c5.549-6.936,13.872-18.865,23.859-27.465c9.988-8.6,16.091-14.149,26.633-19.143s18.588-8.878,27.743-10.265   c9.155-1.387,12.208-2.219,17.2-1.942c4.994,0.277,9.434,1.665,9.434,1.665s-3.885-2.774-10.543-2.497   c-6.657,0.278-14.979,0.278-21.36,2.22c-6.381,1.942-15.259,5.549-18.033,6.658c-2.774,1.11-6.936,3.606-6.381-1.109   c0.555-4.717,1.387-12.484,4.994-22.194c3.607-9.71,7.491-18.033,12.484-24.136c4.994-6.104,10.542-10.542,14.981-13.872   c4.438-3.329,17.269-9.641,17.269-9.641s-7.836,2.982-10.333,4.092c-2.497,1.11-5.063,2.636-3.467,1.249   c0.888-0.772,1.595-2.289,3.329-6.45C257.592,106.701,259.762,95.227,259.762,95.227z"
   id="path4217" />
	<path
   fill="#A7A9AC"
   d="M370.386,229.156c0,0,21.641,23.304,35.511,47.995c13.872,24.691,24.138,47.995,27.743,56.318   c3.606,8.323,11.375,21.362,13.316,23.582c1.942,2.22,3.885,1.664,5.826,2.22s3.605,2.22,5.271,3.053   c1.665,0.832,8.323,2.219,13.317-3.885c4.993-6.104,11.374-16.091,13.594-31.351c2.22-15.259,3.606-23.582,3.884-37.452   c0.277-13.872,0-25.524-2.773-31.35c-2.773-5.826-4.438-11.929-5.548-21.084c-1.11-9.155-3.606-13.872-5.55-18.311   c-1.941-4.438-2.773-11.929-4.717-18.31c-1.94-6.381-2.496-12.762-7.213-22.194c-4.716-9.432-5.271-13.871-10.542-21.639   c-5.271-7.768-9.71-13.594-12.484-15.813c-2.773-2.219-4.716-2.497-7.213-5.271s-4.438-5.826-4.438-5.826s5.826,6.658,8.323,8.045   c2.496,1.387,4.717,3.329,8.322,7.49c3.606,4.162,5.271,5.549,5.271,5.549s0.555-0.555-0.557-6.104   c-1.108-5.548-1.387-9.433-5.548-16.646c-4.162-7.213-9.154-13.317-11.375-16.091c-2.22-2.774-11.098-11.097-11.098-11.097   s15.812,12.761,20.53,20.252c4.716,7.491,8.322,15.814,9.986,23.582c1.665,7.768,3.606,12.762,5.825,18.033   c2.22,5.271,8.323,17.755,10.543,25.523s4.993,21.64,6.658,26.078s5.549,15.813,6.658,23.858   c1.108,8.046,4.161,13.594,5.549,18.033c1.387,4.439,3.329,13.039,3.605,19.975c0.277,6.936-1.108,27.465-2.22,36.62   c-1.108,9.155-3.605,23.304-6.104,29.13c-2.496,5.826-7.213,14.981-9.987,17.479c-2.774,2.496-8.045,7.213-12.484,6.104   c-4.438-1.11-14.426-4.994-16.923-8.879c-2.496-3.885-9.155-15.536-13.594-25.801c-4.438-10.265-10.542-24.414-18.033-38.007   c-7.49-13.594-14.147-26.079-20.53-34.957C384.812,249.13,370.386,229.156,370.386,229.156z"
   id="path4219" />
	<path
   fill="#A7A9AC"
   d="M105.441,482.032c0,0,8.185,15.396,11.514,19.281c3.329,3.884,7.629,7.489,8.739,8.045   c1.11,0.555,1.803,1.249,1.803,1.249s1.526-1.665,4.023-2.081s7.49-2.22,10.542-3.606s12.624-6.797,12.624-6.797   s-8.878,6.797-12.068,7.907c-3.19,1.108-7.075,2.496-8.739,3.188c-1.664,0.693-4.855,1.248-5.132,2.221   c-0.277,0.971-0.417,3.052-0.417,3.052s-0.277-1.942-2.219-3.329c-1.942-1.388-3.746-1.526-7.907-6.381   c-4.162-4.854-6.52-8.602-8.462-12.763C107.8,487.857,105.441,482.032,105.441,482.032z"
   id="path4221" />
	<path
   fill="#A7A9AC"
   d="M102.806,510.19c8.323,14.427,9.294,16.508,12.9,20.392s6.936,6.242,10.404,7.769   c3.467,1.525,6.38,1.664,7.906,1.109s2.497-2.497,2.497-2.497s1.249,0.277,3.052-0.277c1.803-0.554,7.768-3.884,9.571-4.716   c1.803-0.833,18.865-9.85,18.865-9.85s-25.246,14.565-27.049,15.259c-1.803,0.694-3.746,1.249-3.746,1.249s0.139,0.693-1.526,1.525   s-7.768,0.693-10.126-0.416c-2.358-1.109-5.548-3.052-7.629-4.855c-2.081-1.803-5.964-6.104-5.964-6.104   s6.242,13.595,10.542,18.864c4.3,5.271,10.403,11.791,14.01,14.565c3.606,2.774,6.381,3.468,7.629,4.022   c1.249,0.556,2.497,1.804,2.497,1.804s0.694-1.11,2.497-1.526c1.803-0.416,7.629-2.081,11.652-2.913s16.923-4.854,21.084-6.381   c4.162-1.524,13.872-5.964,13.872-5.964s-23.998,10.958-28.298,12.206c-4.3,1.249-12.761,2.22-14.704,3.33   c-1.942,1.109-6.381,3.606-6.381,3.606s-0.555-1.665-1.803-2.358s-9.433-3.745-15.397-10.543   c-5.964-6.797-10.819-12.207-15.12-21.084C109.742,527.53,102.806,510.19,102.806,510.19z"
   id="path4223" />
	<path
   fill="#A7A9AC"
   d="M217.8,568.035c0,0-20.946,11.097-27.743,14.287c-6.797,3.189-15.674,6.797-21.362,7.489   c-5.688,0.694-12.345,0.694-14.01,0.694s-2.636,0.416-4.162-1.388s-5.41-7.49-6.242-11.374c-0.833-3.884-0.139,4.438,2.081,7.49   c2.22,3.052,3.468,4.576,3.884,5.132s2.081,2.358-1.526,1.665c-3.607-0.693-10.82-4.301-16.23-9.85   c-5.41-5.549-13.594-16.091-15.12-17.894c-1.526-1.804-4.716-3.329-2.774,2.497c1.942,5.825,6.52,14.563,11.791,20.528   c5.271,5.966,10.819,12.206,15.813,15.536c4.994,3.329,9.849,7.213,16.369,7.629s8.877-0.416,9.571,0   c0.693,0.416,2.635,1.942,2.635,1.942s-0.139-0.972,1.665-1.665s3.884-1.664,10.958-2.496c7.075-0.833,15.12-1.525,22.194-3.746   c7.075-2.22,19.559-7.905,26.217-11.651c6.659-3.745,12.484-8.045,12.484-8.045s-20.391,11.235-26.356,13.594   c-5.964,2.358-14.426,5.549-21.5,6.658c-7.074,1.109-15.12,1.665-18.033,2.357c-2.913,0.693-6.242,1.942-7.213,2.358   s-1.942-0.277-2.636-0.555c-0.694-0.277-3.052,0.555-5.688,0.416c-2.636-0.14-7.49,0.276-14.287-4.302   c-6.797-4.577-14.704-10.818-19.42-16.229c-4.716-5.41-9.571-13.455-11.375-17.339c-1.803-3.885-2.774-5.549-2.913-6.797   c-0.139-1.248,0.139-2.221,2.774,1.248c2.636,3.468,6.797,9.294,10.403,13.038c3.607,3.745,7.907,8.047,11.791,10.266   c3.884,2.22,8.184,4.022,9.155,4.162c0.971,0.139,3.052-0.972,3.468-1.248c0.416-0.278-0.139-0.557,2.081-0.278   s5.687-0.139,11.097-0.693c5.41-0.555,7.907-1.248,12.9-2.912c4.994-1.664,21.085-9.711,25.247-12.067   C207.952,574.139,217.8,568.035,217.8,568.035z"
   id="path4225" />
	<path
   fill="#A7A9AC"
   d="M121.81,588.98c0,0,10.958,15.396,15.813,19.837c4.855,4.438,7.629,8.6,13.178,12.066   c5.549,3.467,14.149,8.186,17.339,9.018s4.855,1.108,5.964,1.249c1.11,0.138,2.081,0,0-2.081s-4.022-6.104-4.716-8.046   c-0.693-1.942-0.555-4.577-0.555-4.577s0.555,4.438,2.636,7.073c2.081,2.637,3.884,5.134,5.41,6.521   c1.526,1.388,2.22,2.22,4.439,2.358c2.22,0.139,14.149,0,19.836-1.248c5.688-1.249,19.143-4.302,30.378-9.851   c11.236-5.549,36.065-19.697,36.065-19.697s-20.53,13.316-25.522,15.813c-4.993,2.497-15.12,7.907-24.552,10.404   c-9.433,2.496-19.975,5.132-25.524,5.408c-5.548,0.277-12.623-0.555-14.564-0.832c-1.942-0.276-3.19,0.277-6.104-0.416   c-2.913-0.693-9.433-2.912-12.9-4.717c-3.467-1.804-9.433-5.548-9.433-5.548s7.629,7.629,11.513,9.849   c3.884,2.22,6.797,4.022,8.739,4.577c1.942,0.556,2.913,0,4.994,0s7.074,0.556,9.433,0.972c2.358,0.417,14.426,1.388,27.327,0   c12.9-1.388,30.101-4.854,41.059-8.185c10.958-3.33,30.656-11.098,35.511-13.179c4.855-2.08,20.945-12.067,20.945-12.067   s-15.674,11.098-23.442,14.287c-7.769,3.19-25.662,10.683-34.678,12.901s-30.517,7.352-40.504,7.906   c-9.988,0.555-21.779,0.555-26.634-0.14c-4.855-0.693-6.797-1.664-8.739-1.387s-3.468,0.693-3.884,1.525s-0.693-0.832-0.693-0.832   s-1.665-0.416-5.826-2.774c-4.161-2.357-13.316-9.017-17.2-14.148c-3.884-5.133-6.936-8.185-10.82-12.623   C132.213,603.962,121.81,588.98,121.81,588.98z"
   id="path4227" />
	<path
   fill="#A7A9AC"
   d="M84.08,490.217c0,0,4.3,25.661,5.965,32.599c1.665,6.936,5.826,26.633,8.6,34.678   c2.774,8.046,9.433,25.385,13.733,33.431c4.3,8.045,12.068,24.414,22.055,34.817c9.988,10.402,20.253,19.696,27.466,24.136   s11.929,6.242,11.929,6.242s-2.358-2.774-3.329-5.271c-0.971-2.496-0.971-9.432-0.971-9.432s0.694,5.549,2.081,8.6   c1.387,3.053,3.052,5.41,4.439,6.521c1.387,1.108,4.578,2.219,13.732,2.912c9.155,0.693,30.378,0.276,50.076-4.301   c19.699-4.577,40.783-10.265,60.203-20.391c19.42-10.127,38.424-20.808,49.659-28.437c11.235-7.63,21.225-14.288,31.904-21.917   s22.333-18.312,31.21-26.911c8.878-8.602,21.362-19.836,26.771-28.853c5.41-9.018,8.879-13.872,12.484-25.106   c3.606-11.236,4.3-17.756,4.854-24.275c0.554-6.519,0.972-19.836,0.693-23.025c-0.277-3.19,0-1.942,0-1.942l1.109,1.388   c0,0,0.416,10.682-0.277,20.808c-0.692,10.126-1.803,20.113-7.769,33.983c-5.964,13.872-9.987,20.946-24.136,35.929   c-14.148,14.979-28.854,27.188-38.285,34.816c-9.434,7.629-23.442,17.479-36.621,26.772c-13.179,9.293-38.008,22.609-47.578,27.604   c-9.572,4.994-26.218,12.483-41.062,16.784c-14.842,4.3-40.227,9.294-50.076,9.987c-9.849,0.692-28.159-1.388-32.181-2.081   c-4.023-0.692-9.71-1.941-15.675-5.133c-5.965-3.189-13.872-8.878-23.304-18.864c-9.432-9.987-20.668-22.473-27.465-37.729   c-6.797-15.259-14.01-28.992-18.449-45.915s-8.6-39.812-9.848-47.163C84.773,498.123,84.08,490.217,84.08,490.217z"
   id="path4229" />
</g>

</svg>